<?xml version="1.0" encoding="UTF-8"?>
<svg xmlns="http://www.w3.org/2000/svg" width="672" height="617" fill="none">
  <g clip-path="url(#clip0)">
    <path d="M181.6 452.2c-3.2 16.3 68.5 43.9 160 61.7 91.5 17.8 168.3 18.9 171.5 2.6 3.2-16.3-68.5-43.9-160-61.7-91.5-17.7-168.3-18.9-171.5-2.6z" fill="url(#paint0_radial)"></path>
    <path d="M358.4 431.2c85.439 0 154.7-69.262 154.7-154.7 0-85.439-69.261-154.7-154.7-154.7-85.438 0-154.7 69.261-154.7 154.7 0 85.438 69.262 154.7 154.7 154.7z" fill="url(#paint1_radial)"></path>
    <path d="M361.4 32.3c-127.1 0-230.2 103.1-230.2 230.2s103.1 230.2 230.2 230.2 230.2-103 230.2-230.2c0-127.1-103.1-230.2-230.2-230.2zM155.6 288.7c-4-3-4-8 0-11-4 3-4 8 0 11z" fill="url(#paint2_radial)"></path>
    <path opacity=".6" d="M525 300l41.9 9.9v-50.8l47.9 11" stroke="#A38AFF" stroke-width=".829" stroke-miterlimit="10"></path>
    <path opacity=".2" d="M422.398 266.1l144 32.3" stroke="#71F8FF" stroke-width=".829" stroke-miterlimit="10"></path>
    <path opacity=".3" d="M528.5 311.7l17.9 4.3v-74" stroke="#71F8FF" stroke-width=".829" stroke-miterlimit="10"></path>
    <path opacity=".5" d="M211 195.2l190.1 43" stroke="#71F8FF" stroke-width=".829" stroke-miterlimit="10"></path>
    <path opacity=".2" d="M566.5 276.9l-106.4-25.2-.4-.1-1 .5M224.2 209l55 12.9 10.6-8.1-65.6-4.8zm234.5 51.5L566.5 286l-107.8-25.5z" stroke="#71F8FF" stroke-width=".829" stroke-miterlimit="10"></path>
    <path d="M589.9 281.1l-129.8-29.4-.4-.1-1 .5" stroke="url(#paint3_linear)" stroke-miterlimit="10"></path>
    <path opacity=".2" d="M458.7 233.8l108.2 25.6" stroke="#71F8FF" stroke-width=".829" stroke-miterlimit="10"></path>
    <path opacity=".6" d="M403.102 208.7l143 33.3" stroke="#A38AFF" stroke-width=".829" stroke-miterlimit="10"></path>
    <path d="M211.6 195.969c.454-.404.436-1.166-.041-1.703-.477-.536-1.232-.644-1.686-.24-.454.403-.436 1.165.041 1.702.477.537 1.232.644 1.686.241zM142.975 244.197c.454-.404.436-1.166-.041-1.703-.477-.536-1.232-.644-1.686-.24-.454.403-.436 1.165.041 1.702.477.537 1.232.644 1.686.241z" fill="#71F8FF"></path>
    <path opacity=".6" d="M163.288 234.356c.454-.404.435-1.166-.042-1.703-.477-.537-1.232-.644-1.686-.241-.454.404-.435 1.166.042 1.703.477.536 1.232.644 1.686.241zM59.686 199.797c.454-.403.436-1.165-.041-1.702-.477-.537-1.232-.644-1.686-.241-.454.404-.436 1.166.041 1.703.477.536 1.232.644 1.686.24z" fill="#A38AFF"></path>
    <path d="M615.448 270.666c.454-.404.435-1.166-.042-1.703-.477-.536-1.231-.644-1.685-.241-.454.404-.436 1.166.041 1.703.477.536 1.232.644 1.686.241zM524.882 300.685c.413-.367.361-1.099-.116-1.636-.477-.536-1.199-.674-1.611-.307-.413.367-.361 1.099.116 1.636.477.537 1.198.674 1.611.307z" fill="#A38AFF"></path>
    <path opacity=".2" d="M355.5 345.3l108.2 25.6" stroke="#71F8FF" stroke-width=".829" stroke-miterlimit="10"></path>
    <path opacity=".6" d="M297.602 288.7l42 9.9v-50.8l25.7 6.1" stroke="#A38AFF" stroke-width=".829" stroke-miterlimit="10"></path>
    <path opacity=".2" d="M142.898 243.4l196.2 43.7" stroke="#71F8FF" stroke-width=".829" stroke-miterlimit="10"></path>
    <path d="M142.898 243.4l196.2 43.7" stroke="url(#paint4_linear)" stroke-width="1.484" stroke-miterlimit="10"></path>
    <path d="M186.398 265.7l196.2 43.7" stroke="url(#paint5_linear)" stroke-width="1.484" stroke-miterlimit="10"></path>
    <path opacity=".3" d="M301.2 300.4l17.9 4.2v-74" stroke="#71F8FF" stroke-width=".829" stroke-miterlimit="10"></path>
    <path opacity=".6" d="M58.8 199.7l95.4 23.3" stroke="#A38AFF" stroke-width=".829" stroke-miterlimit="10"></path>
    <path opacity=".2" d="M66.2 212.1l54.9 12.9 10.6-8.1" stroke="#71F8FF" stroke-width=".829" stroke-miterlimit="10"></path>
    <path opacity=".6" d="M162.398 233.4l176.7 41.3" stroke="#A38AFF" stroke-width=".829" stroke-miterlimit="10"></path>
    <path opacity=".2" d="M339.098 265.6l-106.4-25.3h-.3l-1 .5" stroke="#71F8FF" stroke-width=".829" stroke-miterlimit="10"></path>
    <path opacity=".6" d="M231.398 222.4l108.2 25.7" stroke="#A38AFF" stroke-width=".829" stroke-miterlimit="10"></path>
    <path opacity=".2" d="M159.3 195.9l159.5 34.8" stroke="#71F8FF" stroke-width=".829" stroke-miterlimit="10"></path>
    <path d="M365.94 254.471c.454-.403.436-1.166-.041-1.702-.477-.537-1.232-.645-1.686-.241-.454.404-.436 1.166.041 1.702.477.537 1.232.645 1.686.241zM297.595 289.36c.413-.367.361-1.099-.116-1.636-.477-.537-1.199-.674-1.611-.307-.413.367-.361 1.099.116 1.636.477.536 1.198.674 1.611.307z" fill="#A38AFF"></path>
    <path opacity=".3" d="M538 285l-13.3-3.1v-9.6l13.2 3.1.1 9.6z" fill="#002A3A"></path>
    <path d="M537 283.9l-13.2-3.1-.1-9.6 13.3 3.1v9.6z" fill="#00DDBF"></path>
    <path d="M523.8 271.2v-1.6l4.1.9 1.7 2.1-5.8-1.4z" fill="#10BDA4"></path>
    <path opacity=".8" d="M430.7 117.5L576 151.4v69.2l-145.3-33.8v-69.3z" fill="url(#paint6_linear)"></path>
    <path opacity=".5" d="M453.3 104.9l145.3 33.8v69.2l-145.3-33.8v-69.2z" fill="url(#paint7_linear)"></path>
    <path opacity=".6" d="M566.8 169.2c0 3.9-3.7 6.3-8.3 5.2l-106.9-24.9c-4.5-1.1-8.3-5.2-8.3-9.1 0-3.9 3.7-6.3 8.3-5.2l106.9 24.9c4.5 1.1 8.3 5.2 8.3 9.1z" fill="url(#paint8_linear)"></path>
    <g opacity=".5">
      <path opacity=".5" d="M548.5 164.6c0 2.8 2.3 5.6 5.1 6.1s5.1-1.3 5.1-4.2c0-2.8-2.3-5.6-5.1-6.1s-5.1 1.3-5.1 4.2z" fill="url(#paint9_radial)"></path>
      <path opacity=".5" d="M536 162c0 2.8 2.3 5.6 5.1 6.1s5.1-1.3 5.1-4.2c0-2.8-2.3-5.6-5.1-6.1s-5.1 1.4-5.1 4.2z" fill="url(#paint10_radial)"></path>
      <path opacity=".5" d="M523.5 159.2c0 2.8 2.3 5.6 5.1 6.1s5.1-1.3 5.1-4.2c0-2.8-2.3-5.6-5.1-6.1s-5.1 1.4-5.1 4.2z" fill="url(#paint11_radial)"></path>
      <path opacity=".5" d="M511.398 156.3c0 2.8 2.3 5.6 5.1 6.1s5.1-1.3 5.1-4.2c0-2.9-2.3-5.6-5.1-6.1s-5.1 1.3-5.1 4.2z" fill="url(#paint12_radial)"></path>
      <path opacity=".5" d="M498.398 153.2c0 2.8 2.3 5.6 5.1 6.1s5.1-1.3 5.1-4.2c0-2.8-2.3-5.6-5.1-6.1s-5.1 1.3-5.1 4.2z" fill="url(#paint13_radial)"></path>
      <path opacity=".5" d="M486.198 150.6c0 2.8 2.3 5.6 5.1 6.1s5.1-1.3 5.1-4.2c0-2.8-2.3-5.6-5.1-6.1s-5.1 1.4-5.1 4.2z" fill="url(#paint14_radial)"></path>
      <path opacity=".5" d="M473.599 147.7c0 2.8 2.3 5.6 5.1 6.1s5.1-1.3 5.1-4.2c0-2.8-2.3-5.6-5.1-6.1s-5.1 1.3-5.1 4.2z" fill="url(#paint15_radial)"></path>
      <path opacity=".5" d="M460.698 144.6c0 2.8 2.3 5.6 5.1 6.1s5.1-1.3 5.1-4.2c0-2.8-2.3-5.6-5.1-6.1s-5.1 1.3-5.1 4.2z" fill="url(#paint16_radial)"></path>
      <path opacity=".5" d="M448.398 141.5c0 2.8 2.3 5.6 5.1 6.1s5.1-1.3 5.1-4.2c0-2.8-2.3-5.6-5.1-6.1s-5.1 1.4-5.1 4.2z" fill="url(#paint17_radial)"></path>
    </g>
    <path d="M455.665 145.258c.994-.875.913-2.594-.181-3.837-1.095-1.244-2.789-1.542-3.784-.666-.995.876-.914 2.594.181 3.838 1.095 1.243 2.789 1.541 3.784.665zM468.211 148.256c.995-.875.914-2.594-.181-3.837-1.094-1.244-2.788-1.542-3.783-.666-.995.876-.914 2.594.181 3.838 1.094 1.243 2.788 1.541 3.783.665zM480.793 151.204c.995-.876.914-2.594-.181-3.838-1.094-1.243-2.788-1.542-3.783-.666-.995.876-.914 2.594.181 3.838 1.094 1.243 2.789 1.542 3.783.666zM493.27 154.23c.995-.876.914-2.594-.181-3.837-1.095-1.244-2.789-1.542-3.784-.666-.995.875-.914 2.594.181 3.837 1.095 1.244 2.789 1.542 3.784.666zM505.766 156.847c.994-.876.913-2.594-.181-3.838-1.095-1.243-2.789-1.542-3.784-.666-.995.876-.914 2.594.181 3.838 1.095 1.244 2.789 1.542 3.784.666zM518.297 159.65c.995-.876.914-2.594-.181-3.838-1.094-1.243-2.788-1.541-3.783-.665-.995.875-.914 2.594.181 3.837 1.094 1.244 2.788 1.542 3.783.666zM530.848 162.61c.995-.876.914-2.594-.181-3.838-1.095-1.243-2.789-1.541-3.784-.665-.994.875-.913 2.594.181 3.837 1.095 1.244 2.789 1.542 3.784.666zM543.387 165.711c.995-.876.914-2.594-.181-3.838-1.095-1.243-2.789-1.541-3.784-.665-.995.875-.914 2.594.181 3.837 1.095 1.244 2.789 1.542 3.784.666zM555.852 168.439c.995-.876.914-2.594-.181-3.837-1.095-1.244-2.789-1.542-3.784-.666-.995.875-.914 2.594.181 3.837 1.095 1.244 2.789 1.542 3.784.666z" fill="#1DEFCB"></path>
    <path opacity=".5" d="M566.8 193.6c0 3.9-3.7 6.3-8.3 5.2l-106.9-24.9c-4.5-1.1-8.3-5.2-8.3-9.1 0-3.9 3.7-6.3 8.3-5.2l106.9 24.9c4.5 1 8.3 5.1 8.3 9.1z" fill="url(#paint18_linear)"></path>
    <g opacity=".5">
      <path opacity=".5" d="M548.5 188.9c0 2.8 2.3 5.6 5.1 6.1s5.1-1.3 5.1-4.2c0-2.8-2.3-5.6-5.1-6.1s-5.1 1.4-5.1 4.2z" fill="url(#paint19_radial)"></path>
      <path opacity=".5" d="M536 186.4c0 2.8 2.3 5.6 5.1 6.1s5.1-1.3 5.1-4.2c0-2.8-2.3-5.6-5.1-6.1s-5.1 1.4-5.1 4.2z" fill="url(#paint20_radial)"></path>
      <path opacity=".5" d="M523.5 183.6c0 2.8 2.3 5.6 5.1 6.1s5.1-1.3 5.1-4.2c0-2.9-2.3-5.6-5.1-6.1s-5.1 1.4-5.1 4.2z" fill="url(#paint21_radial)"></path>
      <path opacity=".5" d="M511.398 180.6c0 2.8 2.3 5.6 5.1 6.1s5.1-1.3 5.1-4.2c0-2.9-2.3-5.6-5.1-6.1s-5.1 1.4-5.1 4.2z" fill="url(#paint22_radial)"></path>
      <path opacity=".5" d="M498.398 177.5c0 2.8 2.3 5.6 5.1 6.1s5.1-1.3 5.1-4.2c0-2.8-2.3-5.6-5.1-6.1s-5.1 1.4-5.1 4.2z" fill="url(#paint23_radial)"></path>
      <path opacity=".5" d="M486.198 175c0 2.8 2.3 5.6 5.1 6.1s5.1-1.3 5.1-4.2c0-2.9-2.3-5.6-5.1-6.1s-5.1 1.4-5.1 4.2z" fill="url(#paint24_radial)"></path>
      <path opacity=".5" d="M473.599 172.101c0 2.8 2.3 5.6 5.1 6.1s5.1-1.3 5.1-4.2c0-2.9-2.3-5.6-5.1-6.1s-5.1 1.3-5.1 4.2z" fill="url(#paint25_radial)"></path>
      <path opacity=".5" d="M460.698 169c0 2.8 2.3 5.6 5.1 6.1s5.1-1.3 5.1-4.2c0-2.9-2.3-5.6-5.1-6.1s-5.1 1.3-5.1 4.2z" fill="url(#paint26_radial)"></path>
      <path opacity=".5" d="M448.398 165.9c0 2.8 2.3 5.6 5.1 6.1s5.1-1.3 5.1-4.2c0-2.8-2.3-5.6-5.1-6.1s-5.1 1.3-5.1 4.2z" fill="url(#paint27_radial)"></path>
    </g>
    <path d="M455.68 169.653c.995-.876.914-2.594-.181-3.838-1.095-1.243-2.789-1.541-3.784-.666-.994.876-.913 2.594.181 3.838 1.095 1.244 2.789 1.542 3.784.666zM468.162 172.576c.994-.876.913-2.594-.181-3.837-1.095-1.244-2.789-1.542-3.784-.666-.995.876-.914 2.594.181 3.837 1.095 1.244 2.789 1.542 3.784.666zM480.743 175.523c.994-.876.914-2.594-.181-3.838-1.095-1.243-2.789-1.541-3.784-.665-.995.875-.914 2.594.181 3.837 1.095 1.244 2.789 1.542 3.784.666zM493.282 178.624c.995-.876.914-2.594-.181-3.837-1.095-1.244-2.789-1.542-3.784-.666-.995.876-.914 2.594.181 3.837 1.095 1.244 2.789 1.542 3.784.666zM505.782 181.241c.995-.875.914-2.594-.181-3.837-1.095-1.244-2.789-1.542-3.784-.666-.995.876-.914 2.594.181 3.837 1.095 1.244 2.789 1.542 3.784.666zM518.313 184.045c.995-.876.914-2.594-.181-3.838-1.094-1.244-2.788-1.542-3.783-.666-.995.876-.914 2.594.181 3.838 1.094 1.243 2.789 1.541 3.783.666zM530.864 187.005c.995-.876.914-2.594-.181-3.838-1.095-1.244-2.789-1.542-3.784-.666-.995.876-.914 2.594.181 3.838 1.095 1.243 2.789 1.541 3.784.666zM543.403 190.104c.995-.876.914-2.594-.181-3.837-1.095-1.244-2.789-1.542-3.784-.666-.995.875-.914 2.594.181 3.837 1.095 1.244 2.789 1.542 3.784.666zM555.868 192.833c.995-.876.913-2.594-.181-3.837-1.095-1.244-2.789-1.542-3.784-.666-.995.875-.914 2.594.181 3.837 1.095 1.244 2.789 1.542 3.784.666z" fill="#1DEFCB"></path>
    <path opacity=".6" d="M155.3 98.3l130.6 28.5V181l-130.6-28.5V98.3z" fill="url(#paint28_linear)"></path>
    <path d="M177.3 81.3l130.6 28.5V164l-130.6-28.5V81.3z" fill="url(#paint29_linear)"></path>
    <path d="M197.3 69.3l130.6 28.5V152l-130.6-28.5V69.3z" fill="url(#paint30_linear)"></path>
    <path opacity=".3" d="M192.1 114.1l-29.8-6.9v36l29.8 6.9v-36z" fill="#003CAA"></path>
    <path opacity=".8" d="M201.3 127.1v3.3l45.8 10.6v-3.3l-45.8-10.6z" fill="url(#paint31_linear)"></path>
    <path d="M261.598 141.1l-7.2-1.7v3.3l7.2 1.7v-3.3z" fill="url(#paint32_linear)"></path>
    <path d="M261.598 160l-46.2-11.1v3.3l46.2 11.1V160z" fill="url(#paint33_linear)"></path>
    <path d="M201.3 145.6v3.3l8.1 1.9v-3.3l-8.1-1.9z" fill="url(#paint34_linear)"></path>
    <path d="M242.8 145.5l-15.2-3.6v3.3l15.2 3.6v-3.3z" fill="url(#paint35_linear)"></path>
    <path opacity=".3" d="M201.3 135.4v4.1l19.6 4.6V140l-19.6-4.6z" fill="url(#paint36_linear)"></path>
    <path opacity=".3" d="M261.6 149.4l-11.3-2.6v4.1l11.3 2.7v-4.2z" fill="url(#paint37_linear)"></path>
    <path d="M181.239 126.406c2.019-1.802 1.808-5.333-.472-7.888-2.279-2.555-5.764-3.166-7.784-1.364-2.019 1.801-1.808 5.333.472 7.888 2.28 2.555 5.765 3.166 7.784 1.364z" fill="#1AFAFF"></path>
    <path d="M181.8 128.5c-1.2.9-2.9 1.2-4.7.8-1.8-.4-3.5-1.5-4.7-3-2.5 1-4.1 3.4-4.1 6.5v5.9l17.6 4v-5.9c0-3.1-1.6-6.2-4.1-8.3z" fill="#1AFAFF"></path>
    <path d="M261.6 131l-25.8-5.8v3.3l25.8 5.8V131z" fill="url(#paint38_linear)"></path>
    <path d="M201.3 117.6v3.3l27 6.1v-3.3l-27-6.1z" fill="url(#paint39_linear)"></path>
    <path d="M440.4 305.1L348.8 283c-14.6 38.7-29 78.4-42.5 117.8 16.8 14.6 32.3 23.9 32.3 23.9 61.1-21.1 89.8-72.1 101.8-119.6z" fill="#2078FE"></path>
    <path opacity=".6" d="M334.799 163.7c-35.8 38.2-81.6 20-81.6 20-3 30.8-1.6 57.4 2.5 80.2 30.4 7.2 60.9 14.4 92.2 21.3 10.7-28.2 21.6-56.3 32.6-84.4-27.6-11.9-45.7-37.1-45.7-37.1z" fill="#2AD6FF"></path>
    <path opacity=".4" d="M476.602 252.4s.5-.1.7 0c.3.2.2 1.5.1 1.6l-.3.3-.5-1.9z" fill="#B77649"></path>
    <path d="M478.3 250.5s-.7.3-.1.9c.2.2.7.5 1.2.7.1 0 1.4.6 1.4.6l-2.5-2.2z" fill="#9D6741"></path>
    <path d="M478 250.8s1.5 1.6 3.7 1.9l-.4.8c-.1-.1-3.6-1.7-3.3-2.7zm-1 5.3s.3.5.8.4c.5-.1 2.6 3.7 2.7 3.9.1.1 2.6 2.2 2.6 2.2s-1.7 2.9-3.4-2.2c-.3-1.1-2.7-4.3-2.7-4.3z" fill="#865228"></path>
    <path d="M365.398 272.6l-16.5 10.6 87.3 20.9 18.2-10.5-89-21z" fill="url(#paint40_linear)"></path>
    <path opacity=".9" d="M228.3 256.1c13.3 76.8 50.2 121.6 76.9 144.8 13.5-39.4 27.7-78.3 42.4-117-40.7-9-79.8-18.3-119.3-27.8z" fill="#2051E6"></path>
    <path d="M257 264.8c10.4 57.5 39.1 89.9 58.3 105.8 10.1-28.6 20.5-56.9 31.2-85.1-30.4-6.7-60-13.7-89.5-20.7z" fill="#1E89FF"></path>
    <path d="M257 264.8c10.4 57.5 39.1 89.9 58.3 105.8 10.1-28.6 20.5-56.9 31.2-85.1-30.4-6.7-60-13.7-89.5-20.7z" fill="url(#paint41_linear)"></path>
    <path d="M376.802 292.2c-8.5-1.8-16.8-4.1-25.1-6-11.1 29.4-22 59-32.6 88.9 11.2 9.3 19.4 13.1 19.4 13.1 45.5-15.9 66.7-51.3 76.1-86.7l-37.8-9.3z" fill="url(#paint42_linear)"></path>
    <path d="M350.6 286c-11.1 29.4-22 59-32.6 88.9 11.2 9.3 19.4 13.1 19.4 13.1 45.5-15.8 66.7-51.2 76-86.6L350.6 286v0z" stroke="url(#paint43_linear)" stroke-width="2" stroke-miterlimit="10"></path>
    <path d="M333.199 158.2c-34.8 37.1-79.2 19.4-79.2 19.4-2.8 29.1-1.6 54.3 2.1 76.1 28.8 6.9 57.3 13.7 86.8 20.2 10.3-27.1 20.8-54.1 31.5-81.1-25-12.1-41.2-34.6-41.2-34.6z" fill="url(#paint44_linear)"></path>
    <path d="M334.799 163.7c-35.8 38.2-81.6 20-81.6 20-3 30.8-1.6 57.4 2.5 80.2 30.4 7.2 60.9 14.4 92.2 21.3 10.7-28.2 21.6-56.3 32.6-84.4-27.6-11.9-45.7-37.1-45.7-37.1z" fill="url(#paint45_linear)"></path>
    <path d="M314.9 372.1c-20.1-16.1-50.1-48.9-60.9-107.2l93.3 22.5" stroke="url(#paint46_linear)" stroke-width="2" stroke-miterlimit="10"></path>
    <path d="M246.002 143.3l-19.4 10.1c42.5 12.5 72.3 1 89.5-10.4-27.3 11.8-70.1.3-70.1.3z" fill="url(#paint47_linear)"></path>
    <path d="M435.8 304c-9.5 37.6-28.5 76.5-64.8 105.7 0 0 53.3-18.4 77.5-102.3" fill="#003CAA"></path>
    <path d="M390.2 157.1c-14.1-8.5-28.4-21-40.6-39.3l-17.9 10.7s24.2 28.3 58.7 44.9l15.6-9.1c-3.1-.4-11.6-4.9-15.8-7.2z" fill="url(#paint48_linear)"></path>
    <path d="M406.098 164.4l-41 108.3-16.7 10.9 42.1-110.1 15.6-9.1z" fill="url(#paint49_linear)"></path>
    <path opacity=".5" d="M406.3 192.4c10.6 4.6 22.5 7.2 35.4 5.8 0 0 8.7 42.6-2.4 88.5 8.5 1.3 16.5 4.5 25 5.7 13.5-59.4 3.1-116.3 3.1-116.3-18.7 2.1-36-2.3-51-9.6" fill="#2078FE"></path>
    <path d="M416.3 166.7c15.2 7.3 32.4 12.3 50.4 11.6l17.8-10.1s-24.4 2.3-53.2-10.1" fill="url(#paint50_linear)"></path>
    <path d="M479.1 283.4c6.8-30.4 10.2-67.2 5.2-114.9l-17.8 10.1s11.4 53.7-3.2 113.9M453.8 293.7s-2.2 6.1-5.5 13.9l-12.1-3.4 17.6-10.5z" fill="#003CAA"></path>
    <path opacity=".8" d="M252.999 185.1s45.8 18.2 81.6-20c0 0 17.1 23.8 43.4 36.1 3.5-9 7.1-18.1 10.7-27.1-33.9-16.4-55.9-47-55.9-47-47.2 50.4-107.6 26.4-107.6 26.4-3.8 39.6-2.2 73.8 2.9 103.4 9 2.2 18.1 4.3 27.1 6.5-3.9-22.4-5.1-48.3-2.2-78.3z" fill="#2078FE"></path>
    <path d="M256.198 263.3c-3.8-22.4-5.1-48.3-2.2-78.2 0 0 45.8 18.2 81.6-20 0 0 17.1 23.8 43.4 36.1" stroke="url(#paint51_linear)" stroke-miterlimit="10"></path>
    <path d="M254 185.1s45.3 18 81-19.3" stroke="url(#paint52_linear)" stroke-width="2" stroke-miterlimit="10"></path>
    <path opacity=".6" d="M439 286.4c10.3-45.1 2.3-88.2 2.3-88.2-12.9 1.5-24.8-1.2-35.4-5.8-10.3 26.3-20.6 52.7-30.6 79.2" fill="#2AD6FF"></path>
    <path opacity=".8" d="M177.1 187.8l-15-3.5-3.3-4.2-8.2-1.9v3.4h-.1l.1 19.1 26.5 6.2v-19.1z" fill="#26C6E7"></path>
    <path opacity=".2" d="M184 182l-14.9-3.5-3.4-4.2-8.2-1.9v22.5l26.5 6.2V182z" fill="#26C6E7"></path>
    <path d="M168.602 212.6l-26.5-6.2v-19.1l26.5 6.2v19.1z" fill="#fff"></path>
    <path d="M142.102 187.3v-3.4l8.2 1.9 3.4 4.2-11.6-2.7z" fill="#C9C9C9"></path>
    <path opacity=".8" d="M488.2 376.5l-27.2-6.1v-19.6l27.2 6.1v19.6z" fill="#26C6E7"></path>
    <path opacity=".2" d="M495.602 369.4l-27.2-6.1v-19.6l27.2 6.2v19.5z" fill="#26C6E7"></path>
    <path d="M480.602 382.8l-27.2-6.1v-19.5l27.2 6.1v19.5z" fill="#F2F2F2"></path>
    <path d="M453.402 357.2l12.8 14.4 14.4-8.3v19.6l-27.2-6.1c0-.1-.5-19.3 0-19.6z" fill="#BFC1C1"></path>
    <path d="M433.9 285.4l-58.2-14.3c9.7-25.5 18.6-47.3 28.5-72.7 10.6 4.6 18.1 8.1 31 6.7 0 0 6.5 36.2-1.9 79.2" fill="url(#paint53_linear)"></path>
    <g opacity=".5" fill="#45FFFF">
      <path opacity=".5" d="M375.4 367.4l-7-1.6c-.1-.6-.6-1.1-1.2-1.2-.7-.2-1.2.3-1.2.9 0 .7.5 1.3 1.2 1.5.6.1 1.1-.2 1.2-.7l7 1.6v11.6l-7-1.6c-.1-.6-.6-1.1-1.2-1.2-.7-.2-1.2.3-1.2.9 0 .6.5 1.3 1.2 1.5.6.1 1.1-.2 1.2-.7l7 1.6v5.6l-7-1.6c-.1-.6-.6-1.1-1.2-1.2-.7-.2-1.2.3-1.2.9 0 .6.5 1.3 1.2 1.5.6.1 1.1-.2 1.2-.7l7 1.6v6.3l-23.6-5.2v-6.3l9.1 2.1c.1.6.6 1.1 1.2 1.2.7.2 1.2-.3 1.2-.9 0-.6-.5-1.3-1.2-1.5-.6-.1-1.1.2-1.2.7l-9.1-2.1v-5.6l9.1 2.1c.1.6.6 1.1 1.2 1.2.7.2 1.2-.3 1.2-.9 0-.7-.5-1.3-1.2-1.5-.6-.1-1.1.2-1.2.7l-9.1-2.1v-5.6l9.1 2.1c.1.6.6 1.1 1.2 1.2.7.2 1.2-.3 1.2-.9 0-.7-.5-1.3-1.2-1.5-.6-.1-1.1.2-1.2.7l-9.1-2.1v-5.6l9.1 2.1c.1.6.6 1.1 1.2 1.2.7.2 1.2-.3 1.2-.9 0-.7-.5-1.3-1.2-1.5-.6-.1-1.1.2-1.2.7l-9.1-2.1v-5.6l9.1 2.1c.1.6.6 1.1 1.2 1.2.7.2 1.2-.3 1.2-.9 0-.7-.5-1.3-1.2-1.5-.6-.1-1.1.2-1.2.7l-9.1-2.1v-5.5l9.1 2.1c.1.6.6 1.1 1.2 1.2.7.2 1.2-.3 1.2-.9 0-.7-.5-1.3-1.2-1.5-.6-.1-1.1.2-1.2.7l-9.1-2.1v-6.3l4.8 1.1v-.5l-5.2-1.2v44.1l24.5 5.4v-44.1l-9.2-1.9v.5l8.7 1.8v6.3l-7-1.6c-.1-.6-.6-1.1-1.2-1.2-.7-.2-1.2.3-1.2.9 0 .7.5 1.3 1.2 1.5.6.1 1.1-.2 1.2-.7l7 1.6c0 .1-.1 11.7 0 11.7zm-71.6-43l-14.6 11.2c-.5-.4-1.1-.5-1.5-.2-.5.4-.5 1.1 0 1.7.5.6 1.2.7 1.7.4.4-.3.5-.9.2-1.5l14.7-11.3h.1v-12.6L272.6 273l-.6-.1 32 39.3v12.2h-.2z"></path>
      <path opacity=".5" d="M300.5 312.3L267.8 272h-.3v.4l32.6 40v11.1l-32.6 25.1v.6l33-25.4v-11.5zm87.9 24.9l-2.6 2c-.5-.4-1.1-.5-1.5-.2-.5.4-.5 1.1 0 1.7.5.6 1.2.7 1.7.4.4-.3.5-.9.2-1.5l2.5-1.9 4.2 1 14.1-10.9c.5.4 1.1.5 1.5.2.5-.4.5-1.1 0-1.7-.5-.6-1.2-.7-1.7-.4-.4.3-.5.9-.2 1.5l-14 10.8-4.2-1zm1.3-20.2c-.1-.6-.6-1.1-1.2-1.2-.7-.2-1.2.3-1.2.9 0 .7.5 1.3 1.2 1.5.6.1 1.1-.2 1.2-.7l1.6.4 10.8-8.3v-6.7l-.5-.1v6.5l-10.5 8.1-1.4-.4zm-11.5-.3c-.5.4-.5 1.1 0 1.7.5.6 1.2.7 1.7.4.4-.3.5-.9.2-1.5l11.4-8.8v-8.2l-.5-.1v8l-11.3 8.7c-.5-.4-1.1-.5-1.5-.2z"></path>
      <path opacity=".5" d="M310.3 312.3l-30.5-37.5-.6-.1 30.7 37.7v13.4l-42.4 32.7v.6l42.8-33v-13.8zm61.3 30.6c-.5 0-1 .4-1 .9 0 .7.5 1.3 1.2 1.5.7.2 1.2-.3 1.2-.9 0-.6-.4-1.2-1-1.4v-26.8l11.8-9.1v-8.5l-.5-.1v8.3l-11.8 9.1v27h.1zm-54-48.8c.5.6 1.2.7 1.7.4.5-.3.5-1.1 0-1.7-.4-.5-1-.7-1.5-.5l-8.8-10.8-.6-.1 9.1 11.2c-.4.3-.3 1 .1 1.5zm33.8 8.8c.5.6 1.2.7 1.7.4.5-.3.5-1.1 0-1.7-.4-.5-1-.7-1.5-.5l-5.3-6.5V290l-.5-.1v4.8l5.4 6.7c-.2.4-.2 1 .2 1.5z"></path>
      <path opacity=".5" d="M318.598 330.3l25.3 31.2c-.3.4-.3 1 .2 1.5.5.6 1.2.7 1.7.4.5-.4.5-1.1 0-1.7-.4-.5-1-.7-1.5-.5l-25.2-31V315l-31.3-38.4-.6-.1 31.5 38.7-.1 15.1zm-6.9-39.5l14 17.2v15.6l18.2 22.4c-.3.4-.3 1 .2 1.5.5.6 1.2.7 1.7.4.5-.3.5-1.1 0-1.7-.4-.5-1-.7-1.5-.5l-18.2-22.2v-15.6l-14.3-17.5-4.5-1-8.3-10.2-.6-.1 8.7 10.7 4.6 1zm46.7 49.1c-.5 0-1 .4-1 .9 0 .7.5 1.3 1.2 1.5.7.2 1.2-.3 1.2-.9 0-.6-.4-1.2-1-1.4v-14.3l-32.8-40.3-.6-.1 33 40.5v14.1z"></path>
      <path opacity=".5" d="M363.098 341c-.5 0-1 .4-1 .9 0 .7.5 1.3 1.2 1.5.7.2 1.2-.3 1.2-.9 0-.6-.4-1.2-1-1.4v-18.4l-23.2-28.5c0-.5 0-2.7.1-4.9v-.6l-.5-.1c0 1.8 0 3.9-.1 5.6v.1l23.2 28.5V341h.1zm18-18.9l-5.5 4.3v17.5c-.5 0-1 .4-1 .9 0 .7.5 1.3 1.2 1.5.7.2 1.2-.3 1.2-.9 0-.6-.4-1.2-1-1.4v-17.3l5.3-4.1 9.6 2.2 24.5-18.9-.6-.1-24.1 18.6-9.6-2.3zm-99.5-9.2c.5.4 1.1.5 1.5.2.5-.4.5-1.1 0-1.7-.5-.6-1.2-.7-1.7-.4-.4.3-.5.9-.2 1.5l-3.8 3-10-12.2v.6l10 12.2 4.2-3.2zm-4.9 9.2l9.6-7.4c.5.4 1.1.5 1.5.2.5-.4.5-1.1 0-1.7-.5-.6-1.2-.7-1.7-.4-.4.3-.5.9-.2 1.5l-9.8 7.5v7.4l-8.7 6.8v.6l9.2-7.1v-7.4h.1zm103.9 22.8c-.7-.2-1.2.3-1.2.9 0 .6.5 1.3 1.2 1.5.6.1 1.1-.2 1.2-.7l8 1.8 24.4-18.8c.5.4 1.1.5 1.5.2.5-.4.5-1.1 0-1.7-.5-.6-1.2-.7-1.7-.4-.4.3-.5.9-.2 1.5l-24.2 18.7-7.8-1.8c-.1-.5-.6-1-1.2-1.2z"></path>
      <path opacity=".5" d="M367.4 358.4c-.7-.2-1.2.3-1.2.9 0 .7.5 1.3 1.2 1.5.6.1 1.1-.2 1.2-.7l8 1.8 24.4-18.8c.5.4 1.1.5 1.5.2.5-.4.5-1.1 0-1.7-.5-.6-1.2-.7-1.7-.4-.4.3-.5.9-.2 1.5l-24.2 18.7-7.8-1.8c-.2-.6-.6-1.1-1.2-1.2zm-46.1-20.8l-10.3-2.4-26.5 20.5v9.3l59.3 13.6c.1.6.6 1.1 1.2 1.2.7.2 1.2-.3 1.2-.9 0-.7-.5-1.3-1.2-1.5-.6-.1-1.1.2-1.2.7L285 364.6v-8.7l26.3-20.2 10 2.3 17.9 22v3c-.5 0-1 .4-1 .9 0 .7.5 1.3 1.2 1.5.7.2 1.2-.3 1.2-.9 0-.6-.4-1.2-1-1.4v-3.2l-18.3-22.3z"></path>
      <path opacity=".5" d="M298.998 349l-10.9 8.4v4.4l48.9 11.2c.1.6.6 1.1 1.2 1.2.7.2 1.2-.3 1.2-.9 0-.6-.5-1.3-1.2-1.5-.6-.1-1.1.2-1.2.7l-48.4-11.1v-3.7l10.7-8.2 4.1.9 11.8-9.1c.5.4 1.1.5 1.5.2.5-.4.5-1.1 0-1.7-.5-.6-1.2-.7-1.7-.4-.4.3-.5.9-.2 1.5l-11.7 9-4.1-.9zm-20.4 16.6l-6.4-1.5 6.4 1.5z"></path>
      <path opacity=".5" d="M316.3 351.1l-5.9 4.5-3.4-.8-6.3 4.9c-.5-.4-1.1-.5-1.5-.2-.5.4-.5 1.1 0 1.7.5.6 1.2.7 1.7.4.4-.3.5-.9.2-1.5l6.2-4.8 3.4.8 6.1-4.7v-3.8l1.9-1.5c.5.4 1.1.5 1.5.2.5-.4.5-1.1 0-1.7-.5-.6-1.2-.7-1.7-.4-.4.3-.5.9-.2 1.5l-2 1.6v3.8zm-2.8-38.7l-22.1-27.1c.3-.4.3-1-.2-1.5-.5-.6-1.2-.7-1.7-.4-.5.3-.5 1.1 0 1.7.4.5 1 .7 1.5.5l22 26.9v14l-45.5 35.1v.6l45.9-35.4v-14.4h.1zm16.4 45.7c-.5-.6-1.2-.7-1.7-.4-.5.3-.5 1.1 0 1.7.4.5 1 .7 1.5.5l6.2 7.6c-.3.4-.3 1 .2 1.5.5.6 1.2.7 1.7.4.5-.4.5-1.1 0-1.7-.4-.5-1-.7-1.5-.5l-6.2-7.6c.2-.3.2-1-.2-1.5z"></path>
      <path opacity=".5" d="M291.298 324.2c.5-.4.5-1.1 0-1.7-.5-.6-1.2-.7-1.7-.4-.4.3-.5.9-.2 1.5l-21.9 16.9v.6l22.2-17.1c.5.5 1.1.6 1.6.2zm-9 18.8c.5-.4.5-1.1 0-1.7-.5-.6-1.2-.7-1.7-.4-.4.3-.5.9-.2 1.5l-13 10v.6l13.3-10.3c.6.5 1.2.6 1.6.3zm80.2-34.5c-.5.4-.5 1.1 0 1.7.5.6 1.2.7 1.7.4.4-.3.5-.9.2-1.5l6.6-5.1 4.4 1c.1.6.6 1.1 1.2 1.2.7.2 1.2-.3 1.2-.9 0-.7-.5-1.3-1.2-1.5-.6-.1-1.1.2-1.2.7l-4.6-1-6.7 5.2c-.6-.4-1.2-.5-1.6-.2zm48 8.7l-18.3 14.1-5.2-1.2-7.3 5.6c-.5-.4-1.1-.5-1.5-.2-.5.4-.5 1.1 0 1.7.5.6 1.2.7 1.7.4.4-.3.5-.9.2-1.5l7.1-5.5 5.2 1.2 18.3-14.1 15.9 3.6 12.9-10-.6-.1-12.5 9.6-15.9-3.6zm-90.1 42.8l-1.4 1.1c-.5-.4-1.1-.5-1.5-.2-.5.4-.5 1.1 0 1.7.5.6 1.2.7 1.7.4.4-.3.5-.9.2-1.5l1.2-1 4.2 1 1.1-.8c.5.4 1.1.5 1.5.2.5-.4.5-1.1 0-1.7-.5-.6-1.2-.7-1.7-.4-.4.3-.5.9-.2 1.5l-1 .7-4.1-1z"></path>
      <path opacity=".5" d="M367.399 341.9c-.5 0-1 .4-1 .9 0 .7.5 1.3 1.2 1.5.7.2 1.2-.3 1.2-.9 0-.6-.4-1.2-1-1.4v-19.4l-10.1-12.4V301l8.4-6.5-.6-.1-8.2 6.3v9.6l10.1 12.4v19.2zm-23.3-.2c.5.6 1.2.7 1.7.4.5-.4.5-1.1 0-1.7-.4-.5-1-.7-1.5-.5l-13.6-16.7v-15.1l-4.1-5c.3-.4.3-1-.2-1.5-.5-.6-1.2-.7-1.7-.4-.5.3-.5 1.1 0 1.7.4.5 1 .7 1.5.5l3.9 4.8v15.1l13.7 16.8c-.2.5-.2 1.1.3 1.6zm-28.2 21.3c-.7-.2-1.2.3-1.2.9 0 .7.5 1.3 1.2 1.5.6.1 1.1-.2 1.2-.7l11.2 2.6c.1.6.6 1.1 1.2 1.2.7.2 1.2-.3 1.2-.9 0-.7-.5-1.3-1.2-1.5-.6-.1-1.1.2-1.2.7l-11.2-2.6c-.2-.5-.7-1.1-1.2-1.2zm-39.6-70.8c.5.6 1.2.7 1.7.4.5-.4.5-1.1 0-1.7-.4-.5-1-.7-1.5-.5l-8.9-11v.6l8.6 10.6c-.4.5-.3 1.1.1 1.6zm10.8-15.7l-1.3-.3c.4.3.9.4 1.3.3z"></path>
      <path opacity=".5" d="M307.4 312.1L276.3 274l-.6-.1 31.2 38.3v12.9l-39.4 30.4v.7l39.9-30.8v-13.3z"></path>
      <path opacity=".5" d="M274.6 307.3c.5.6 1.2.7 1.7.4.5-.3.5-1.1 0-1.7-.4-.5-1-.7-1.5-.5l-7.3-8.9v.6l7 8.5c-.4.5-.3 1.1.1 1.6zm9.1-4.5l11.2 13.8c-.3.4-.3 1 .2 1.5.5.6 1.2.7 1.7.4.5-.4.5-1.1 0-1.7-.4-.5-1-.7-1.5-.5l-11.4-14-6.3-1.5-10.1-12.4v.6l9.9 12.2 6.3 1.6zm26.8-7.3l12.9 15.9v15.4l20.5 25.1c-.3.4-.3 1 .2 1.5.5.6 1.2.7 1.7.4.5-.4.5-1.1 0-1.7-.4-.5-1-.7-1.5-.5l-20.3-25v-15.4L310.8 295l-3.9-.9-13.2-16.2-.6-.1 13.7 16.8 3.7.9z"></path>
      <path opacity=".5" d="M344.1 357.7c.5.6 1.2.7 1.7.4.5-.4.5-1.1 0-1.7-.4-.5-1-.7-1.5-.5l-22.9-28.2v-15.4l-11.7-14.4c.3-.4.3-1-.2-1.5-.5-.6-1.2-.7-1.7-.4-.5.4-.5 1.1 0 1.7.4.5 1 .7 1.5.5l11.6 14.3v15.4l23.1 28.3c-.4.3-.4 1 .1 1.5zm-42.5-2.8c.5-.4.5-1.1 0-1.7-.5-.6-1.2-.7-1.7-.4-.4.3-.5.9-.2 1.5l-5.2 4c-.5-.4-1.1-.5-1.5-.2-.5.4-.5 1.1 0 1.7.5.6 1.2.7 1.7.4.4-.3.5-.9.2-1.5l5.2-4c.4.4 1.1.5 1.5.2zm7.7 7.5c-.5-.4-1.1-.5-1.5-.2-.5.4-.5 1.1 0 1.7.5.6 1.2.7 1.7.4.4-.3.5-.9.2-1.5l11.8-9.1 5.2 1.2c.1.6.6 1.1 1.2 1.2.7.2 1.2-.3 1.2-.9 0-.7-.5-1.3-1.2-1.5-.6-.1-1.1.2-1.2.7l-5.4-1.2-12 9.2zm29.5-42.1l6.3 7.8c-.3.4-.3 1 .2 1.5.5.6 1.2.7 1.7.4.5-.4.5-1.1 0-1.7-.4-.5-1-.7-1.5-.5l-6.2-7.6v-10.6L318 283.5l-.6-.1 21.4 26.3v10.6zm-66.3 2.2v-4.9 4.9zm-5 3.2v.6-.6zm4.5-8v4.5-4.5z"></path>
      <path opacity=".5" d="M350.998 325l-4.8-5.9c.3-.4.3-1-.2-1.5-.5-.6-1.2-.7-1.7-.4-.5.3-.5 1.1 0 1.7.4.5 1 .7 1.5.5l4.7 5.8V336l-5.1-1.2-6.8-8.3c.3-.4.3-1-.2-1.5-.5-.6-1.2-.7-1.7-.4-.5.4-.5 1.1 0 1.7.4.5 1 .7 1.5.5l6.9 8.5 5.7 1.3.2-11.6zm-27.1 25c0-.7-.6-1.4-1.3-1.6-.7-.2-1.3.3-1.3 1s.6 1.4 1.3 1.6c.7.1 1.3-.3 1.3-1zm-2.1-.5c0-.5.4-.8.8-.7.4.1.8.6.8 1 0 .5-.4.8-.8.7-.4-.1-.8-.5-.8-1zm-9.5 1.2c0-.7-.6-1.4-1.3-1.6-.7-.2-1.3.3-1.3 1s.6 1.4 1.3 1.6c.7.2 1.3-.2 1.3-1zm-2.2-.5c0-.5.4-.8.8-.7.5.1.8.6.8 1s-.4.8-.8.7c-.4 0-.8-.5-.8-1zm-31.9 9.2c0 .7.6 1.4 1.3 1.6.7.2 1.3-.3 1.3-1s-.6-1.4-1.3-1.6c-.7-.1-1.3.3-1.3 1zm2.2.5c0 .5-.4.8-.8.7-.4-.1-.9-.6-.9-1 0-.5.4-.8.8-.7.4.1.9.5.9 1zm6.7-41.2c-.7-.2-1.3.3-1.3 1s.6 1.4 1.3 1.6c.7.2 1.3-.3 1.3-1s-.6-1.4-1.3-1.6zm0 2.2c-.5-.1-.8-.6-.8-1 0-.5.4-.8.8-.7.5.1.8.6.8 1s-.3.8-.8.7zm8.6-9.3c0-.7-.6-1.4-1.3-1.6-.7-.2-1.3.3-1.3 1s.6 1.4 1.3 1.6c.7.1 1.3-.3 1.3-1zm-2.2-.5c0-.5.4-.8.8-.7.5.1.8.6.8 1s-.4.8-.8.7c-.4-.1-.8-.6-.8-1zm-1.7-5.2c0-.7-.6-1.4-1.3-1.6-.7-.2-1.3.3-1.3 1s.6 1.4 1.3 1.6c.7.2 1.3-.2 1.3-1zm-2.2-.4c0-.5.4-.8.8-.7.4.1.8.6.8 1s-.4.8-.8.7c-.4-.1-.8-.6-.8-1zm47 10.7c0-.7-.6-1.4-1.3-1.6-.7-.2-1.3.3-1.3 1s.6 1.4 1.3 1.6c.7.2 1.3-.3 1.3-1zm-2.2-.5c0-.5.4-.8.8-.7.5.1.8.6.8 1s-.4.8-.8.7c-.4-.1-.8-.5-.8-1zm49.1 13.2c0-.7-.6-1.4-1.3-1.6-.7-.2-1.3.3-1.3 1s.6 1.4 1.3 1.6c.7.2 1.3-.2 1.3-1zm-2.2-.5c0-.5.4-.8.8-.7.5.1.8.6.8 1s-.4.8-.8.7c-.4 0-.8-.5-.8-1zm-27.8-31.4c.7.2 1.3-.3 1.3-1s-.6-1.4-1.3-1.6c-.7-.2-1.3.3-1.3 1s.6 1.4 1.3 1.6zm0-2.2c.5.1.8.6.8 1s-.4.8-.8.7c-.5-.1-.8-.6-.8-1s.3-.8.8-.7zm-72.1 28.5c0 .7.6 1.4 1.3 1.6.7.2 1.3-.3 1.3-1s-.6-1.4-1.3-1.6c-.7-.2-1.3.2-1.3 1zm2.1.5c0 .5-.4.8-.8.7-.4-.1-.8-.6-.8-1s.4-.8.8-.7c.4.1.8.5.8 1z"></path>
    </g>
    <path d="M306.102 401.5l-1.5-1.2 42.8-116.2 2.4-1.4-43.7 118.8z" fill="#154BEA"></path>
    <path d="M491.098 263.9h-.1.1zm34.8 27.1s-12.1-3.1-20.5-8.3c0 0-11.2-15.9-14.5-21 0 0-.1-.1-.3-.2-.4-.7-.8-1.3-1.1-2-.3-.5-2.3-4.4-2.6-5.3-.2-.8-2.5-2.7-2.5-2.7l-.3 2.6-.1.8v.6l.3.6-1.1 3.3c0 .1-.6 0-1.1.5l-.1.1c-.1-.1-1.1-1-1.9-1.9-1.4-1.4-2.8-1.5-2.8-1.5-1.2.2-.5 1.5-.1 1.7.4.2 1.3 1.8 1.3 1.8s2 1.5 2.6 2.2c.5.6 1.9 1.7 2.4 2.6.2.3 1.2 1.1 1.5 1.2l2 .7 1.9 1.2c1.8 5.5 5.5 16.2 7.8 18.5 3 3.1 2.1 3 3 4.7.5.8 14.1 8.9 21.1 9.4 7 .5 5.1-9.6 5.1-9.6z" fill="#9D6741"></path>
    <path d="M490.6 273.8c.1 2.7 6.8 15.7 6.8 15.7.9.9 2.6 2.5 2.6 2.5.6.8 5.6 3.8 5.6 3.8l2.5 1.2c8.3 4.6 12.2 3.1 12.2 3.1l1.2-5.3c-4-2.3-20.2-9.5-20.2-9.5-3.3-4-8.7-8.9-8.4-12.8 0 0-2.1-2.5-3.6-2.7 0-.1.8 2.4 1.3 4z" fill="#865228"></path>
    <g opacity=".5">
      <g opacity=".5" fill="#45FFFF">
        <path opacity=".5" d="M411.7 427.8c.5.6 1.3.8 1.8.4s.5-1.2 0-1.8c-.4-.5-1.1-.7-1.6-.5l-10.7-13.1-6.9-1.6-7.4-9.1c.3-.4.3-1.1-.2-1.6-.5-.6-1.3-.8-1.8-.4s-.5 1.2 0 1.8c.4.5 1.1.7 1.6.5l7.5 9.2 6.9 1.6 10.5 12.9c-.2.5-.1 1.2.3 1.7zm-16-59.7l-7.3-1.7c-.1-.6-.6-1.2-1.2-1.3-.7-.2-1.2.3-1.2 1s.6 1.4 1.2 1.5c.6.1 1.1-.2 1.2-.7l7.3 1.7v12.1l-7.3-1.7c-.1-.6-.6-1.2-1.2-1.3-.7-.2-1.2.3-1.2 1s.6 1.4 1.2 1.5c.6.1 1.1-.2 1.2-.7l7.3 1.7v5.8l-7.3-1.7c-.1-.6-.6-1.2-1.2-1.3-.7-.2-1.2.3-1.2 1s.6 1.4 1.2 1.5c.6.1 1.1-.2 1.2-.7l7.3 1.7v6.5l-45-10.3v-6.5l9.5 2.2c.1.6.6 1.2 1.2 1.3.7.2 1.2-.3 1.2-1s-.6-1.4-1.2-1.5c-.6-.1-1.1.2-1.2.7l-9.5-2.2v-5.8l9.5 2.2c.1.6.6 1.2 1.2 1.3.7.2 1.2-.3 1.2-1s-.6-1.4-1.2-1.5c-.6-.1-1.1.2-1.2.7l-9.5-2.2v-5.8l9.5 2.2c.1.6.6 1.2 1.2 1.3.7.2 1.2-.3 1.2-1s-.6-1.4-1.2-1.5c-.6-.1-1.1.2-1.2.7l-9.5-2.2v-5.8l9.5 2.2c.1.6.6 1.2 1.2 1.3.7.2 1.2-.3 1.2-1s-.6-1.4-1.2-1.5c-.6-.1-1.1.2-1.2.7l-9.5-2.2V352l9.5 2.2c.1.6.6 1.2 1.2 1.3.7.2 1.2-.3 1.2-1s-.6-1.4-1.2-1.5c-.6-.1-1.1.2-1.2.7l-9.5-2.2v-5.8l9.5 2.2c.1.6.6 1.2 1.2 1.3.7.2 1.2-.3 1.2-1s-.6-1.4-1.2-1.5c-.6-.1-1.1.2-1.2.7l-9.5-2.2v-6.5l5 1.1v-.5l-5.5-1.3v46l46 10.5v-46l-30-6.9v.5l29.5 6.7v6.5l-7.3-1.7c-.1-.6-.6-1.2-1.2-1.3-.7-.2-1.2.3-1.2 1s.6 1.4 1.2 1.5c.6.1 1.1-.2 1.2-.7l7.3 1.7c0 .2-.1 12.4 0 12.3z"></path>
        <path opacity=".5" d="M386.102 413.1c.4.7 1.2 1 1.7.7.6-.2.7-1 .3-1.7-.4-.6-1.1-1-1.7-.7-2.2-2.8-8-9.8-9.5-11.7v-4.9l15.3 3.5 4.2 5.1c-.3.4-.3 1.1.2 1.6.5.6 1.3.8 1.8.4s.5-1.2 0-1.8c-.4-.5-1.1-.7-1.6-.5l-4.3-5.3-16-3.7v5.5l.1.1c3.2 3.9 7.8 9.5 9.6 11.8-.4.5-.4 1-.1 1.6zm-35.6-5.5l-22.5-27.7c.3-.4.3-1.1-.2-1.6-.5-.6-1.3-.8-1.8-.4s-.5 1.2 0 1.8c.4.5 1.1.7 1.6.5l22.7 27.9 16.5 3.8 30.4 37.3.7.2-30.9-38-16.5-3.8zm-49.8-89.1l-15.2 11.7c-.5-.4-1.2-.5-1.6-.2-.5.4-.5 1.2 0 1.8.5.6 1.3.8 1.8.4.4-.3.5-1 .2-1.5l15.3-11.8h.1v-13.1l-33.3-40.8-.7-.2 33.3 41v12.7h.1z"></path>
        <path opacity=".5" d="M297.202 305.9l-34.1-42-.3-.1v.4l34 41.7v11.6l-34 26.2v.7l34.4-26.6v-11.9zm91.7 25.9l-2.7 2.1c-.5-.4-1.2-.5-1.6-.2-.5.4-.5 1.2 0 1.8.5.6 1.3.8 1.8.4.4-.3.5-1 .2-1.5l2.6-2 4.4 1 14.7-11.3c.5.4 1.2.5 1.6.2.5-.4.5-1.2 0-1.8-.5-.6-1.3-.8-1.8-.4-.4.3-.5 1-.2 1.5l-14.6 11.2-4.4-1zm1.3-21.1c-.1-.6-.6-1.2-1.2-1.3-.7-.2-1.2.3-1.2 1s.6 1.4 1.2 1.5c.6.1 1.1-.2 1.2-.7l1.7.4 11.3-8.7v-7l-.5-.1v6.8l-11 8.5-1.5-.4zm-12-.3c-.5.4-.5 1.2 0 1.8.5.6 1.3.8 1.8.4.4-.3.5-1 .2-1.5l11.9-9.2v-8.5l-.5-.1v8.3l-11.8 9.1c-.5-.5-1.1-.6-1.6-.3z"></path>
        <path opacity=".5" d="M307.502 305.8l-31.9-39.1-.6-.1 32 39.3v14l-44.2 34.1v.7l44.7-34.5v-14.4zm63.9 32c-.6 0-1 .4-1 1 0 .7.6 1.4 1.2 1.5.7.2 1.2-.3 1.2-1 0-.6-.4-1.2-1-1.4V310l12.3-9.5v-8.9l-.5-.1v8.7l-12.3 9.5v28.1h.1zm-56.4-50.9c.5.6 1.3.8 1.8.4s.5-1.2 0-1.8c-.4-.5-1.1-.7-1.6-.5l-9.2-11.3-.7-.2 9.5 11.7c-.3.5-.2 1.1.2 1.7zm35.3 9.1c.5.6 1.3.8 1.8.4s.5-1.2 0-1.8c-.4-.5-1.1-.7-1.6-.5l-5.5-6.8v-4.8l-.5-.1v5l5.6 6.9c-.2.5-.2 1.2.2 1.7z"></path>
        <path opacity=".5" d="M316 324.7l26.4 32.5c-.3.4-.3 1.1.2 1.6.5.6 1.3.8 1.8.4s.5-1.2 0-1.8c-.4-.5-1.1-.7-1.6-.5l-26.3-32.3v-15.9l-32.6-40.1-.7-.2 32.8 40.3v16zm-7.2-41.2l14.6 17.9v16.2l19 23.4c-.3.4-.3 1.1.2 1.6.5.6 1.3.8 1.8.4s.5-1.2 0-1.8c-.4-.5-1.1-.7-1.6-.5l-18.9-23.2v-16.2L309 283l-4.7-1.1-8.6-10.6-.7-.2 9.1 11.2 4.7 1.2zm48.8 51.1c-.6 0-1 .4-1 1 0 .7.6 1.4 1.2 1.5.7.2 1.2-.3 1.2-1 0-.6-.4-1.2-1-1.4v-14.9l-34.2-42-.7-.2 34.4 42.3v14.7h.1z"></path>
        <path opacity=".5" d="M362.5 335.7c-.6 0-1 .4-1 1 0 .7.6 1.4 1.2 1.5.7.2 1.2-.3 1.2-1 0-.6-.4-1.2-1-1.4v-19.2l-24.2-29.7c0-.5 0-2.8.1-5.1v-.6l-.5-.1c0 1.9 0 4.1-.1 5.8v.1l24.2 29.7v19h.1zm18.8-19.7l-5.8 4.4v18.2c-.6 0-1 .4-1 1 0 .7.6 1.4 1.2 1.5.7.2 1.2-.3 1.2-1 0-.6-.4-1.2-1-1.4v-18l5.5-4.2 10 2.3 25.6-19.7-.7-.2-25.1 19.4-9.9-2.3zm-103.8-9.5c.5.4 1.2.5 1.6.2.5-.4.5-1.2 0-1.8-.5-.6-1.3-.8-1.8-.4-.4.3-.5 1-.2 1.5l-4 3.1-10.4-12.8v.7l10.4 12.8 4.4-3.3zm79.1 98.4l-16.4-20.2c.3-.4.3-1.1-.2-1.6-.5-.6-1.3-.8-1.8-.4s-.5 1.2 0 1.8c.4.5 1.1.7 1.6.5l16.5 20.3 10.4 2.4 34.5 42.3.7.2-34.9-42.9-10.4-2.4zm7.3-2.6l-10.8-13.2c.3-.4.3-1.1-.2-1.6-.5-.6-1.3-.8-1.8-.4s-.5 1.2 0 1.8c.4.5 1.1.7 1.6.5l10.9 13.4 3.5.8 38.7 47.6.7.2-39.2-48.2-3.4-.9zm-91.5-86.2l10-7.7c.5.4 1.2.5 1.6.2.5-.4.5-1.2 0-1.8-.5-.6-1.3-.8-1.8-.4-.4.3-.5 1-.2 1.5l-10.2 7.8v7.7l-9.1 7v.7l9.6-7.4v-7.6h.1zm108.4 23.8c-.7-.2-1.2.3-1.2 1s.6 1.4 1.2 1.5c.6.1 1.1-.2 1.2-.7l8.3 1.9 25.4-19.6c.5.4 1.2.5 1.6.2.5-.4.5-1.2 0-1.8-.5-.6-1.3-.8-1.8-.4-.4.3-.5 1-.2 1.5L390 343l-8.1-1.9c0-.5-.5-1.1-1.1-1.2zm5.5 78.6l-21.8-26.7c.3-.4.3-1.1-.2-1.6-.5-.6-1.3-.8-1.8-.4s-.5 1.2 0 1.8c.4.5 1.1.7 1.6.5L386 419l14.6 3.3 27.7 34 .7.2-28.2-34.6-14.5-3.4zm-67.4-86.3l-10.8-2.5-27.7 21.3v9.7l61.8 14.1c.1.6.6 1.2 1.2 1.3.7.2 1.2-.3 1.2-1s-.6-1.4-1.2-1.5c-.6-.1-1.1.2-1.2.7l-61.3-14v-9.1l27.4-21.1 10.4 2.4 18.6 22.9v3.1c-.6 0-1 .4-1 1 0 .7.6 1.4 1.2 1.5.7.2 1.2-.3 1.2-1 0-.6-.4-1.2-1-1.4v-3.1l-18.8-23.3z"></path>
        <path opacity=".5" d="M295.7 344.1l-11.4 8.8v4.5l51 11.7c.1.6.6 1.2 1.2 1.3.7.2 1.2-.3 1.2-1s-.6-1.4-1.2-1.5c-.6-.1-1.1.2-1.2.7L284.8 357v-3.9l11.1-8.6 4.3 1 12.3-9.5c.5.4 1.2.5 1.6.2.5-.4.5-1.2 0-1.8-.5-.6-1.3-.8-1.8-.4-.4.3-.5 1-.2 1.5l-12.2 9.4-4.2-.8zm-21.3 17.3l-6.7-1.5 6.7 1.5z"></path>
        <path opacity=".5" d="M313.702 346.3l-6.1 4.7-3.5-.8-6.6 5.1c-.5-.4-1.2-.5-1.6-.2-.5.4-.5 1.2 0 1.8.5.6 1.3.8 1.8.4.4-.3.5-1 .2-1.5l6.5-5 3.5.8 6.4-4.9v-3.9l2-1.6c.5.4 1.2.5 1.6.2.5-.4.5-1.2 0-1.8-.5-.6-1.3-.8-1.8-.4-.4.3-.5 1-.2 1.5l-2.1 1.6-.1 4zm-3-40.4l-23-28.3c.3-.4.3-1.1-.2-1.6-.5-.6-1.3-.8-1.8-.4s-.5 1.2 0 1.8c.4.5 1.1.7 1.6.5l22.9 28.1v14.7l-47.4 36.6v.7l47.9-36.9v-15.2zm17.1 47.7c-.5-.6-1.3-.8-1.8-.4s-.5 1.2 0 1.8c.4.5 1.1.7 1.6.5l6.5 7.9c-.3.4-.3 1.1.2 1.6.5.6 1.3.8 1.8.4s.5-1.2 0-1.8c-.4-.5-1.1-.7-1.6-.5l-6.5-7.9c.3-.4.3-1.1-.2-1.6z"></path>
        <path opacity=".5" d="M287.6 318.3c.5-.4.5-1.2 0-1.8-.5-.6-1.3-.8-1.8-.4-.4.3-.5 1-.2 1.5l-22.8 17.6v.7L286 318c.5.5 1.1.6 1.6.3zm-9.4 19.6c.5-.4.5-1.2 0-1.8-.5-.6-1.3-.8-1.8-.4-.4.3-.5 1-.2 1.5l-13.5 10.4v.7l13.9-10.7c.6.5 1.2.6 1.6.3zm83.6-36.1c-.5.4-.5 1.2 0 1.8.5.6 1.3.8 1.8.4.4-.3.5-1 .2-1.5l6.8-5.3 4.6 1c.1.6.6 1.2 1.2 1.3.7.2 1.2-.3 1.2-1s-.6-1.4-1.2-1.5c-.6-.1-1.1.2-1.2.7l-4.7-1.1-7 5.4c-.6-.4-1.2-.5-1.7-.2zm50.1 9.1l-19.1 14.7-5.4-1.2-7.6 5.8c-.5-.4-1.2-.5-1.6-.2-.5.4-.5 1.2 0 1.8.5.6 1.3.8 1.8.4.4-.3.5-1 .2-1.5l7.4-5.7 5.4 1.2 19.1-14.7 16.6 3.8 13.5-10.4-.7-.2-13 10-16.6-3.8zM318 355.6l-1.4 1.1c-.5-.4-1.2-.5-1.6-.2-.5.4-.5 1.2 0 1.8.5.6 1.3.8 1.8.4.4-.3.5-1 .2-1.5l1.3-1 4.4 1 1.1-.9c.5.4 1.2.5 1.6.2.5-.4.5-1.2 0-1.8-.5-.6-1.3-.8-1.8-.4-.4.3-.5 1-.2 1.5l-1 .8-4.4-1z"></path>
        <path opacity=".5" d="M367.002 336.8c-.6 0-1 .4-1 1 0 .7.6 1.4 1.2 1.5.7.2 1.2-.3 1.2-1 0-.6-.4-1.2-1-1.4v-20.2l-10.6-13v-9.6l8.8-6.8-.7-.2-8.6 6.6v10l10.6 13v20.1h.1zm-24.4-.3c.5.6 1.3.8 1.8.4s.5-1.2 0-1.8c-.4-.5-1.1-.7-1.6-.5l-14.1-17.4v-15.7l-4.2-5.2c.3-.4.3-1.1-.2-1.6-.5-.6-1.3-.8-1.8-.4s-.5 1.2 0 1.8c.4.5 1.1.7 1.6.5l4.1 5v15.7l14.3 17.6c-.4.4-.3 1.1.1 1.6zm-29.4 22.2c-.7-.2-1.2.3-1.2 1s.6 1.4 1.2 1.5c.6.1 1.1-.2 1.2-.7l11.6 2.7c.1.6.6 1.2 1.2 1.3.7.2 1.2-.3 1.2-1s-.6-1.4-1.2-1.5c-.6-.1-1.1.2-1.2.7l-11.6-2.7c-.1-.6-.6-1.2-1.2-1.3zm-41.3-73.8c.5.6 1.3.8 1.8.4s.5-1.2 0-1.8c-.4-.5-1.1-.7-1.6-.5l-9.3-11.4v.7l9 11c-.3.4-.3 1.1.1 1.6zm11.3-16.4l-1.3-.3c.4.3.9.4 1.3.3z"></path>
        <path opacity=".5" d="M304.402 305.7l-32.4-39.8-.7-.2 32.6 40.1v13.4l-41.1 31.7v.7l41.6-32.1v-13.8z"></path>
        <path opacity=".5" d="M270.202 300.7c.5.6 1.3.8 1.8.4s.5-1.2 0-1.8c-.4-.5-1.1-.7-1.6-.5l-7.6-9.3v.7l7.3 8.9c-.4.4-.3 1.1.1 1.6zm9.5-4.8l11.7 14.4c-.3.4-.3 1.1.2 1.6.5.6 1.3.8 1.8.4s.5-1.2 0-1.8c-.4-.5-1.1-.7-1.6-.5l-11.9-14.5-6.6-1.5-10.5-12.9v.7l10.3 12.7 6.6 1.4zm28-7.6l13.5 16.5v16l21.3 26.2c-.3.4-.3 1.1.2 1.6.5.6 1.3.8 1.8.4s.5-1.2 0-1.8c-.4-.5-1.1-.7-1.6-.5l-21.2-26.1v-16l-13.7-16.9-4.1-.9-13.8-16.9-.7-.2 14.2 17.5 4.1 1.1z"></path>
        <path opacity=".5" d="M342.602 353.1c.5.6 1.3.8 1.8.4s.5-1.2 0-1.8c-.4-.5-1.1-.7-1.6-.5l-23.9-29.4v-16.1l-12.2-15c.3-.4.3-1.1-.2-1.6-.5-.6-1.3-.8-1.8-.4s-.5 1.2 0 1.8c.4.5 1.1.7 1.6.5l12.1 14.9V322l24.1 29.6c-.4.3-.3 1 .1 1.5zm-44.3-2.8c.5-.4.5-1.2 0-1.8-.5-.6-1.3-.8-1.8-.4-.4.3-.5 1-.2 1.5l-5.4 4.2c-.5-.4-1.2-.5-1.6-.2-.5.4-.5 1.2 0 1.8.5.6 1.3.8 1.8.4.4-.3.5-1 .2-1.5l5.4-4.2c.6.4 1.2.5 1.6.2zm8 7.8c-.5-.4-1.2-.5-1.6-.2-.5.4-.5 1.2 0 1.8.5.6 1.3.8 1.8.4.4-.3.5-1 .2-1.5l12.3-9.5 5.5 1.3c.1.6.6 1.2 1.2 1.3.7.2 1.2-.3 1.2-1s-.6-1.4-1.2-1.5c-.6-.1-1.1.2-1.2.7l-5.7-1.3-12.5 9.5zm30.9-43.9l6.6 8.1c-.3.4-.3 1.1.2 1.6.5.6 1.3.8 1.8.4s.5-1.2 0-1.8c-.4-.5-1.1-.7-1.6-.5l-6.5-7.9V303l-22.2-27.2-.7-.2 22.3 27.4v11.2h.1zm-69.2 2.2v-5 5zm-5.2 3.4v.6-.6zm4.7-8.3v4.6-4.6z"></path>
        <path opacity=".5" d="M349.8 319.1l-5-6.2c.3-.4.3-1.1-.2-1.6-.5-.6-1.3-.8-1.8-.4s-.5 1.2 0 1.8c.4.5 1.1.7 1.6.5l4.9 6v11.2l-5.3-1.2-7-8.7c.3-.4.3-1.1-.2-1.6-.5-.6-1.3-.8-1.8-.4s-.5 1.2 0 1.8c.4.5 1.1.7 1.6.5l7.2 8.9 6 1.4v-12zm-28.2 26c0-.8-.6-1.5-1.4-1.7-.7-.2-1.4.3-1.4 1s.6 1.5 1.4 1.7c.8.2 1.4-.2 1.4-1zm-2.2-.5c0-.5.4-.8.9-.7.5.1.9.6.9 1.1 0 .5-.4.8-.9.7-.5-.1-.9-.6-.9-1.1zm-9.9 1.3c0-.8-.6-1.5-1.4-1.7-.7-.2-1.4.3-1.4 1s.6 1.5 1.4 1.7c.8.2 1.4-.2 1.4-1zm-2.3-.5c0-.5.4-.8.9-.7.5.1.9.6.9 1.1 0 .5-.4.8-.9.7-.5-.1-.9-.6-.9-1.1zM274 355c0 .8.6 1.5 1.4 1.7.7.2 1.4-.3 1.4-1s-.6-1.5-1.4-1.7c-.8-.2-1.4.2-1.4 1zm2.3.5c0 .5-.4.8-.9.7-.5-.1-.9-.6-.9-1.1 0-.5.4-.8.9-.7.5.1.9.6.9 1.1zm6.9-42.9c-.8-.2-1.4.3-1.4 1s.6 1.5 1.4 1.7c.8.2 1.4-.3 1.4-1 0-.8-.6-1.6-1.4-1.7zm0 2.2c-.5-.1-.9-.6-.9-1.1 0-.5.4-.8.9-.7.5.1.9.6.9 1.1 0 .5-.4.8-.9.7zm9-9.7c0-.8-.6-1.5-1.4-1.7-.8-.2-1.4.3-1.4 1s.6 1.5 1.4 1.7c.8.2 1.4-.3 1.4-1zm-2.2-.5c0-.5.4-.8.9-.7.5.1.9.6.9 1.1 0 .5-.4.8-.9.7-.6-.2-.9-.6-.9-1.1zm-1.9-5.4c0-.8-.6-1.5-1.4-1.7-.8-.2-1.4.3-1.4 1s.6 1.5 1.4 1.7c.8.2 1.4-.2 1.4-1zm-2.2-.5c0-.5.4-.8.9-.7.5.1.9.6.9 1.1 0 .5-.4.8-.9.7-.5-.1-.9-.6-.9-1.1zm48.9 11.2c0-.8-.6-1.5-1.4-1.7-.7-.2-1.4.3-1.4 1s.6 1.5 1.4 1.7c.8.2 1.4-.3 1.4-1zm-2.2-.5c0-.5.4-.8.9-.7.5.1.9.6.9 1.1 0 .5-.4.8-.9.7-.5-.1-.9-.6-.9-1.1zm51.1 13.8c0-.8-.6-1.5-1.4-1.7-.7-.2-1.4.3-1.4 1s.6 1.5 1.4 1.7c.8.2 1.4-.3 1.4-1zm-2.2-.5c0-.5.4-.8.9-.7.5.1.9.6.9 1.1 0 .5-.4.8-.9.7-.5-.1-.9-.6-.9-1.1zm-29-32.8c.8.2 1.4-.3 1.4-1s-.6-1.5-1.4-1.7c-.8-.2-1.4.3-1.4 1s.6 1.5 1.4 1.7zm0-2.3c.5.1.9.6.9 1.1 0 .5-.4.8-.9.7-.5-.1-.9-.6-.9-1.1 0-.5.4-.8.9-.7zM394.3 416c0 .8.6 1.5 1.4 1.7.7.2 1.4-.3 1.4-1s-.6-1.5-1.4-1.7c-.8-.2-1.4.3-1.4 1zm2.3.5c0 .5-.4.8-.9.7-.5-.1-.9-.6-.9-1.1 0-.5.4-.8.9-.7.5.2.9.6.9 1.1zm.4 8.6c0-.8-.6-1.5-1.4-1.7-.7-.2-1.4.3-1.4 1s.6 1.5 1.4 1.7c.8.2 1.4-.3 1.4-1zm-2.2-.5c0-.5.4-.8.9-.7.5.1.9.6.9 1.1 0 .5-.4.8-.9.7-.5-.1-.9-.6-.9-1.1zM277.3 317.3c0 .8.6 1.5 1.4 1.7.8.2 1.4-.3 1.4-1s-.6-1.5-1.4-1.7c-.8-.2-1.4.2-1.4 1zm2.2.5c0 .5-.4.8-.9.7-.5-.1-.9-.6-.9-1.1 0-.5.4-.8.9-.7.5.1.9.6.9 1.1z"></path>
      </g>
      <g opacity=".5" fill="#45FFFF">
        <path opacity=".5" d="M378.5 310.5c.5.6 1.3.8 1.8.4s.5-1.2 0-1.8c-.4-.5-1.1-.7-1.6-.5l-10.7-13-6.9-1.6-7.4-9.1c.3-.4.3-1.1-.2-1.6-.5-.6-1.3-.8-1.8-.4s-.5 1.2 0 1.8c.4.5 1.1.7 1.6.5l7.5 9.2 6.9 1.6 10.5 12.9c-.2.4-.2 1.1.3 1.6zm-16-59.6l-7.3-1.7c-.1-.6-.6-1.2-1.2-1.3-.7-.2-1.2.3-1.2 1s.6 1.4 1.2 1.5c.6.1 1.1-.2 1.2-.7l7.3 1.7v12.1l-7.3-1.7c-.1-.6-.6-1.2-1.2-1.3-.7-.2-1.2.3-1.2 1s.6 1.4 1.2 1.5c.6.1 1.1-.2 1.2-.7l7.3 1.7v5.8l-7.3-1.7c-.1-.6-.6-1.2-1.2-1.3-.7-.2-1.2.3-1.2 1s.6 1.4 1.2 1.5c.6.1 1.1-.2 1.2-.7l7.3 1.7v6.5l-45-10.3V260l9.5 2.2c.1.6.6 1.2 1.2 1.3.7.2 1.2-.3 1.2-1s-.6-1.4-1.2-1.5c-.6-.1-1.1.2-1.2.7l-9.5-2.2v-5.8l9.5 2.2c.1.6.6 1.2 1.2 1.3.7.2 1.2-.3 1.2-1s-.6-1.4-1.2-1.5c-.6-.1-1.1.2-1.2.7l-9.5-2.2v-5.8l9.5 2.2c.1.6.6 1.2 1.2 1.3.7.2 1.2-.3 1.2-1s-.6-1.4-1.2-1.5c-.6-.1-1.1.2-1.2.7l-9.5-2.2v-5.8l9.5 2.2c.1.6.6 1.2 1.2 1.3.7.2 1.2-.3 1.2-1s-.6-1.4-1.2-1.5c-.6-.1-1.1.2-1.2.7l-9.5-2.2v-5.8l9.5 2.2c.1.6.6 1.2 1.2 1.3.7.2 1.2-.3 1.2-1s-.6-1.4-1.2-1.5c-.6-.1-1.1.2-1.2.7l-9.5-2.2v-5.8l9.5 2.2c.1.6.6 1.2 1.2 1.3.7.2 1.2-.3 1.2-1s-.6-1.4-1.2-1.5c-.6-.1-1.1.2-1.2.7l-9.5-2.2v-6.5l5 1.1v-.5l-5.5-1.3v46l46 10.5v-46l-30-6.9v.5l29.5 6.7v6.5l-7.3-1.7c-.1-.6-.6-1.2-1.2-1.3-.7-.2-1.2.3-1.2 1s.6 1.4 1.2 1.5c.6.1 1.1-.2 1.2-.7l7.3 1.7c0 .1-.1 12.3 0 12.3z"></path>
        <path opacity=".5" d="M352.902 295.8c.4.7 1.2 1 1.7.7.6-.2.7-1 .3-1.7-.4-.6-1.1-1-1.7-.7-2.2-2.8-8-9.8-9.5-11.7v-4.9l15.3 3.5 4.2 5.1c-.3.4-.3 1.1.2 1.6.5.6 1.3.8 1.8.4s.5-1.2 0-1.8c-.4-.5-1.1-.7-1.6-.5l-4.3-5.3-16-3.7v5.5l.1.1c3.2 3.9 7.8 9.5 9.6 11.8-.4.5-.4 1.1-.1 1.6zm-35.6-5.5l-22.6-27.7c.3-.4.3-1.1-.2-1.6-.5-.6-1.3-.8-1.8-.4s-.5 1.2 0 1.8c.4.5 1.1.7 1.6.5l22.7 27.9 16.5 3.8 30.4 37.3.7.2-30.8-37.9-16.5-3.9zm-49.9-89.1l-15.2 11.7c-.5-.4-1.2-.5-1.6-.2-.5.4-.5 1.2 0 1.8.5.6 1.3.8 1.8.4.4-.3.5-1 .2-1.5l15.3-11.8h.1v-13.1l-33.2-40.7-.7-.2 33.3 41v12.6z"></path>
        <path opacity=".5" d="M264.002 188.6l-34.2-42-.2-.1v.5l33.9 41.7v11.5l-33.9 26.2v.7l34.4-26.6v-11.9zm91.6 25.9l-2.7 2.1c-.5-.4-1.2-.5-1.6-.2-.5.4-.5 1.2 0 1.8.5.6 1.3.8 1.8.4.4-.3.5-1 .2-1.5l2.6-2 4.4 1 14.7-11.3c.5.4 1.2.5 1.6.2.5-.4.5-1.2 0-1.8-.5-.6-1.3-.8-1.8-.4-.4.3-.5 1-.2 1.5l-14.5 11.2-4.5-1zm1.4-21c-.1-.6-.6-1.2-1.2-1.3-.7-.2-1.2.3-1.2 1s.6 1.4 1.2 1.5c.6.1 1.1-.2 1.2-.7l1.7.4 11.3-8.7v-7l-.5-.1v6.8l-11 8.5-1.5-.4zm-12-.3c-.5.4-.5 1.2 0 1.8.5.6 1.3.8 1.8.4.4-.3.5-1 .2-1.5l11.9-9.2v-8.5l-.5-.1v8.3l-11.8 9.1c-.5-.5-1.2-.7-1.6-.3z"></path>
        <path opacity=".5" d="M274.202 188.6l-31.8-39.1-.7-.2 32.1 39.4v14l-44.2 34v.7l44.6-34.4v-14.4zm64 31.9c-.6 0-1 .4-1 1 0 .7.6 1.4 1.2 1.5.7.2 1.2-.3 1.2-1 0-.6-.4-1.2-1-1.4v-27.9l12.3-9.5v-8.9l-.5-.1v8.7l-12.3 9.5v28.1h.1zm-56.4-50.9c.5.6 1.3.8 1.8.4s.5-1.2 0-1.8c-.4-.5-1.1-.7-1.6-.5l-9.2-11.3-.7-.2 9.5 11.7c-.3.5-.3 1.2.2 1.7zm35.3 9.2c.5.6 1.3.8 1.8.4s.5-1.2 0-1.8c-.4-.5-1.1-.7-1.6-.5l-5.5-6.8v-4.8l-.5-.1v5l5.6 6.9c-.3.5-.2 1.1.2 1.7z"></path>
        <path opacity=".5" d="M282.8 207.4l26.4 32.5c-.3.4-.3 1.1.2 1.6.5.6 1.3.8 1.8.4s.5-1.2 0-1.8c-.4-.5-1.1-.7-1.6-.5l-26.3-32.3v-15.9l-32.6-40.1-.7-.2 32.8 40.3v16zm-7.2-41.2l14.6 17.9v16.2l19 23.4c-.3.4-.3 1.1.2 1.6.5.6 1.3.8 1.8.4s.5-1.2 0-1.8c-.4-.5-1.1-.7-1.6-.5l-18.9-23.2V184l-14.9-18.3-4.7-1.1-8.6-10.6-.7-.2 9.1 11.2 4.7 1.2zm48.8 51.1c-.6 0-1 .4-1 1 0 .7.6 1.4 1.2 1.5.7.2 1.2-.3 1.2-1 0-.6-.4-1.2-1-1.4v-14.9l-34.2-42-.7-.2 34.4 42.3v14.7h.1z"></path>
        <path opacity=".5" d="M329.2 218.5c-.6 0-1 .4-1 1 0 .7.6 1.4 1.2 1.5.7.2 1.2-.3 1.2-1 0-.6-.4-1.2-1-1.4v-19.2l-24.2-29.7c0-.5 0-2.8.1-5.1v-.6l-.5-.1c0 1.9 0 4.1-.1 5.8v.1l24.2 29.7v19h.1zm18.8-19.7l-5.8 4.4v18.2c-.6 0-1 .4-1 1 0 .7.6 1.4 1.2 1.5.6.1 1.2-.3 1.2-1 0-.6-.4-1.2-1-1.4v-18l5.5-4.2 10 2.3 25.6-19.7-.7-.2-25 19.3-10-2.2zm-103.7-9.6c.5.4 1.2.5 1.6.2.5-.4.5-1.2 0-1.8-.5-.6-1.3-.8-1.8-.4-.4.3-.5 1-.2 1.5l-4 3.1-10.4-12.8v.7l10.5 12.8 4.3-3.3zm79 98.4l-16.4-20.1c.3-.4.3-1.1-.2-1.6-.5-.6-1.3-.8-1.8-.4s-.5 1.2 0 1.8c.4.5 1.1.7 1.6.5l16.5 20.3 10.4 2.4 34.5 42.3.7.2-34.9-42.9-10.4-2.5zm7.4-2.5l-10.8-13.2c.3-.4.3-1.1-.2-1.6-.5-.6-1.3-.8-1.8-.4s-.5 1.2 0 1.8c.4.5 1.1.7 1.6.5l10.9 13.4 3.5.8 38.7 47.6.7.2-39.2-48.2-3.4-.9zm-91.5-86.3l10-7.7c.5.4 1.2.5 1.6.2.5-.4.5-1.2 0-1.8-.5-.6-1.3-.8-1.8-.4-.4.3-.5 1-.2 1.5l-10.2 7.8v7.7l-9.1 7v.7l9.6-7.4v-7.6h.1zm108.3 23.8c-.7-.2-1.2.3-1.2 1s.6 1.4 1.2 1.5c.6.1 1.1-.2 1.2-.7l8.3 1.9 25.4-19.6c.5.4 1.2.5 1.6.2.5-.4.5-1.2 0-1.8-.5-.6-1.3-.8-1.8-.4-.4.3-.5 1-.2 1.5l-25.3 19.5-8.1-1.9c0-.5-.5-1-1.1-1.2zm5.6 78.6l-21.8-26.7c.3-.4.3-1.1-.2-1.6-.5-.6-1.3-.8-1.8-.4s-.5 1.2 0 1.8c.4.5 1.1.7 1.6.5l21.9 26.9 14.6 3.3 27.7 34 .7.2-28.1-34.7-14.6-3.3zM285.7 215l-10.8-2.5-27.7 21.3v9.7l61.8 14.1c.1.6.6 1.2 1.2 1.3.7.2 1.2-.3 1.2-1s-.6-1.4-1.2-1.5c-.6-.1-1.1.2-1.2.7l-61.3-14V234l27.4-21.1 10.4 2.4 18.6 22.9v3.1c-.6 0-1 .4-1 1 0 .7.6 1.4 1.2 1.5.7.2 1.2-.3 1.2-1 0-.6-.4-1.2-1-1.4v-3.3L285.7 215z"></path>
        <path opacity=".5" d="M262.398 226.8l-11.4 8.8v4.5l51 11.7c.1.6.6 1.2 1.2 1.3.7.2 1.2-.3 1.2-1s-.6-1.4-1.2-1.5c-.6-.1-1.1.2-1.2.7l-50.5-11.6v-3.9l11.1-8.6 4.3 1 12.3-9.5c.5.4 1.2.5 1.6.2.5-.4.5-1.2 0-1.8-.5-.6-1.3-.8-1.8-.4-.4.3-.5 1-.2 1.5l-12.2 9.4-4.2-.8zm-21.3 17.3l-6.7-1.5 6.7 1.5z"></path>
        <path opacity=".5" d="M280.402 229l-6.1 4.7-3.5-.8-6.6 5.1c-.5-.4-1.2-.5-1.6-.2-.5.4-.5 1.2 0 1.8.5.6 1.3.8 1.8.4.4-.3.5-1 .2-1.5l6.5-5 3.5.8 6.4-4.9v-3.9l2-1.6c.5.4 1.2.5 1.6.2.5-.4.5-1.2 0-1.8-.5-.6-1.3-.8-1.8-.4-.4.3-.5 1-.2 1.5l-2.1 1.6-.1 4zm-2.9-40.3l-23-28.3c.3-.4.3-1.1-.2-1.6-.5-.6-1.3-.8-1.8-.4s-.5 1.2 0 1.8c.4.5 1.1.7 1.6.5l22.9 28.1v14.7l-47.4 36.6v.7l47.9-36.9v-15.2zm17.1 47.6c-.5-.6-1.3-.8-1.8-.4s-.5 1.2 0 1.8c.4.5 1.1.7 1.6.5l6.5 7.9c-.3.4-.3 1.1.2 1.6.5.6 1.3.8 1.8.4s.5-1.2 0-1.8c-.4-.5-1.1-.7-1.6-.5l-6.5-7.9c.3-.4.2-1-.2-1.6z"></path>
        <path opacity=".5" d="M254.3 201c.5-.4.5-1.2 0-1.8-.5-.6-1.3-.8-1.8-.4-.4.3-.5 1-.2 1.5l-22.8 17.6v.7l23.2-17.9c.5.6 1.2.7 1.6.3zm-9.3 19.6c.5-.4.5-1.2 0-1.8-.5-.6-1.3-.8-1.8-.4-.4.3-.5 1-.2 1.5l-13.5 10.4v.7l13.9-10.7c.5.5 1.2.6 1.6.3zm83.6-36c-.5.4-.5 1.2 0 1.8.5.6 1.3.8 1.8.4.4-.3.5-1 .2-1.5l6.8-5.3 4.6 1c.1.6.6 1.2 1.2 1.3.7.2 1.2-.3 1.2-1s-.6-1.4-1.2-1.5c-.6-.1-1.1.2-1.2.7l-4.7-1.1-7 5.4c-.6-.4-1.3-.6-1.7-.2zm50.1 9.1l-19.1 14.7-5.4-1.2-7.6 5.8c-.5-.4-1.2-.5-1.6-.2-.5.4-.5 1.2 0 1.8.5.6 1.3.8 1.8.4.4-.3.5-1 .2-1.5l7.4-5.7 5.4 1.2 19.1-14.7 16.6 3.8 13.5-10.4-.7-.2-13 10-16.6-3.8zm-93.9 44.6l-1.4 1.1c-.5-.4-1.2-.5-1.6-.2-.5.4-.5 1.2 0 1.8.5.6 1.3.8 1.8.4.4-.3.5-1 .2-1.5l1.3-1 4.4 1 1.1-.9c.5.4 1.2.5 1.6.2.5-.4.5-1.2 0-1.8-.5-.6-1.3-.8-1.8-.4-.4.3-.5 1-.2 1.5l-1 .8-4.4-1z"></path>
        <path opacity=".5" d="M333.702 219.5c-.6 0-1 .4-1 1 0 .7.6 1.4 1.2 1.5.7.2 1.2-.3 1.2-1 0-.6-.4-1.2-1-1.4v-20.2l-10.6-13v-9.6l8.8-6.8-.7-.2-8.6 6.6v10l10.6 13v20.1h.1zm-24.3-.3c.5.6 1.3.8 1.8.4s.5-1.2 0-1.8c-.4-.5-1.1-.7-1.6-.5l-14.1-17.4v-15.7l-4.2-5.2c.3-.4.3-1.1-.2-1.6-.5-.6-1.3-.8-1.8-.4s-.5 1.2 0 1.8c.4.5 1.1.7 1.6.5l4.1 5V200l14.3 17.6c-.4.4-.3 1.1.1 1.6zm-29.4 22.2c-.7-.2-1.2.3-1.2 1s.6 1.4 1.2 1.5c.6.1 1.1-.2 1.2-.7l11.6 2.7c.1.6.6 1.2 1.2 1.3.7.2 1.2-.3 1.2-1s-.6-1.4-1.2-1.5c-.6-.1-1.1.2-1.2.7l-11.6-2.7c-.1-.6-.6-1.1-1.2-1.3zm-41.3-73.8c.5.6 1.3.8 1.8.4s.5-1.2 0-1.8c-.4-.5-1.1-.7-1.6-.5l-9.3-11.4v.7l9 11c-.4.4-.3 1.1.1 1.6zm11.2-16.4l-1.3-.3c.4.3.9.5 1.3.3z"></path>
        <path opacity=".5" d="M271.102 188.4l-32.3-39.8-.7-.1 32.6 40V202l-41.1 31.6v.7l41.5-32v-13.9z"></path>
        <path opacity=".5" d="M237.002 183.4c.5.6 1.3.8 1.8.4s.5-1.2 0-1.8c-.4-.5-1.1-.7-1.6-.5l-7.6-9.3v.7l7.3 8.9c-.4.4-.4 1.1.1 1.6zm9.5-4.7l11.7 14.4c-.3.4-.3 1.1.2 1.6.5.6 1.3.8 1.8.4s.5-1.2 0-1.8c-.4-.5-1.1-.7-1.6-.5l-11.9-14.6-6.6-1.5-10.5-12.9v.7l10.3 12.7 6.6 1.5zm27.9-7.7l13.5 16.5v16l21.3 26.2c-.3.4-.3 1.1.2 1.6.5.6 1.3.8 1.8.4s.5-1.2 0-1.8c-.4-.5-1.1-.7-1.6-.5l-21.2-25.9v-16l-13.7-16.9-4.1-.9-13.8-16.9-.7-.2 14.2 17.5 4.1.9z"></path>
        <path opacity=".5" d="M309.402 235.9c.5.6 1.3.8 1.8.4s.5-1.2 0-1.8c-.4-.5-1.1-.7-1.6-.5l-23.9-29.4v-16.1l-12.2-15c.3-.4.3-1.1-.2-1.6-.5-.6-1.3-.8-1.8-.4s-.5 1.2 0 1.8c.4.5 1.1.7 1.6.5l12.1 14.9v16.1l24.1 29.6c-.4.3-.3.9.1 1.5zm-44.3-2.9c.5-.4.5-1.2 0-1.8-.5-.6-1.3-.8-1.8-.4-.4.3-.5 1-.2 1.5l-5.4 4.2c-.5-.4-1.2-.5-1.6-.2-.5.4-.5 1.2 0 1.8.5.6 1.3.8 1.8.4.4-.3.5-1 .2-1.5l5.4-4.2c.5.5 1.2.6 1.6.2zm8 7.8c-.5-.4-1.2-.5-1.6-.2-.5.4-.5 1.2 0 1.8.5.6 1.3.8 1.8.4.4-.3.5-1 .2-1.5l12.3-9.5 5.5 1.3c.1.6.6 1.2 1.2 1.3.7.2 1.2-.3 1.2-1s-.6-1.4-1.2-1.5c-.6-.1-1.1.2-1.2.7l-5.7-1.3-12.5 9.5zm30.8-43.8l6.6 8.1c-.3.4-.3 1.1.2 1.6.5.6 1.3.8 1.8.4s.5-1.2 0-1.8c-.4-.5-1.1-.7-1.6-.5l-6.5-7.9v-11.1l-22.2-27.2-.7-.2 22.3 27.4V197h.1zm-69.1 2.2v-5.1 5.1zm-5.2 3.3v.7-.7zm4.7-8.3v4.7-4.7z"></path>
        <path opacity=".5" d="M316.6 201.8l-5-6.2c.3-.4.3-1.1-.2-1.6-.5-.6-1.3-.8-1.8-.4s-.5 1.2 0 1.8c.4.5 1.1.7 1.6.5l4.9 6v11.2l-5.3-1.2-7.1-8.7c.3-.4.3-1.1-.2-1.6-.5-.6-1.3-.8-1.8-.4s-.5 1.2 0 1.8c.4.5 1.1.7 1.6.5l7.2 8.9 6 1.4.1-12zm-28.2 26.1c0-.8-.6-1.5-1.4-1.7-.7-.2-1.4.3-1.4 1s.6 1.5 1.4 1.7c.8.2 1.4-.3 1.4-1zm-2.2-.5c0-.5.4-.8.9-.7.5.1.9.6.9 1.1 0 .5-.4.8-.9.7-.5-.1-.9-.7-.9-1.1zm-9.9 1.2c0-.8-.6-1.5-1.4-1.7-.7-.2-1.4.3-1.4 1s.6 1.5 1.4 1.7c.7.3 1.4-.2 1.4-1zm-2.3-.5c0-.5.4-.8.9-.7.5.1.9.6.9 1.1 0 .5-.4.8-.9.7-.5-.1-.9-.6-.9-1.1zm-33.2 9.6c0 .8.6 1.5 1.4 1.7.7.2 1.4-.3 1.4-1s-.6-1.5-1.4-1.7c-.8-.2-1.4.3-1.4 1zm2.2.5c0 .5-.4.8-.9.7-.5-.1-.9-.6-.9-1.1 0-.5.4-.8.9-.7.5.1.9.6.9 1.1zm7-42.9c-.8-.2-1.4.3-1.4 1s.6 1.5 1.4 1.7c.7.2 1.4-.3 1.4-1-.1-.8-.7-1.5-1.4-1.7zm0 2.2c-.5-.1-.9-.6-.9-1.1 0-.5.4-.8.9-.7.5.1.9.6.9 1.1 0 .5-.4.8-.9.7zm9-9.7c0-.8-.6-1.5-1.4-1.7-.7-.2-1.4.3-1.4 1s.6 1.5 1.4 1.7c.8.2 1.4-.2 1.4-1zm-2.3-.5c0-.5.4-.8.9-.7.5.1.9.6.9 1.1 0 .5-.4.8-.9.7-.5-.1-.9-.6-.9-1.1zm-1.8-5.4c0-.8-.6-1.5-1.4-1.7-.7-.2-1.4.3-1.4 1s.6 1.5 1.4 1.7c.8.3 1.4-.2 1.4-1zm-2.3-.5c0-.5.4-.8.9-.7.5.1.9.6.9 1.1 0 .5-.4.8-.9.7-.5-.1-.9-.6-.9-1.1zm49 11.2c0-.8-.6-1.5-1.4-1.7-.7-.2-1.4.3-1.4 1s.6 1.5 1.4 1.7c.8.2 1.4-.2 1.4-1zm-2.3-.5c0-.5.4-.8.9-.7.5.1.9.6.9 1.1 0 .5-.4.8-.9.7-.5-.1-.9-.6-.9-1.1zm51.2 13.8c0-.8-.6-1.5-1.4-1.7-.7-.2-1.4.3-1.4 1s.6 1.5 1.4 1.7c.8.2 1.4-.2 1.4-1zm-2.3-.5c0-.5.4-.8.9-.7.5.1.9.6.9 1.1 0 .5-.4.8-.9.7-.5-.1-.9-.6-.9-1.1zm-29-32.8c.8.2 1.4-.3 1.4-1s-.6-1.5-1.4-1.7c-.7-.2-1.4.3-1.4 1s.7 1.5 1.4 1.7zm0-2.3c.5.1.9.6.9 1.1 0 .5-.4.8-.9.7-.5-.1-.9-.6-.9-1.1 0-.5.4-.8.9-.7zm41.9 128.5c0 .8.6 1.5 1.4 1.7.7.2 1.4-.3 1.4-1s-.6-1.5-1.4-1.7c-.8-.3-1.4.2-1.4 1zm2.2.5c0 .5-.4.8-.9.7-.5-.1-.9-.6-.9-1.1 0-.5.4-.8.9-.7.5.1.9.6.9 1.1zm.5 8.5c0-.8-.6-1.5-1.4-1.7-.8-.2-1.4.3-1.4 1s.6 1.5 1.4 1.7c.8.2 1.4-.2 1.4-1zm-2.3-.5c0-.5.4-.8.9-.7.5.1.9.6.9 1.1 0 .5-.4.8-.9.7-.5-.1-.9-.6-.9-1.1zM244 200c0 .8.6 1.5 1.4 1.7.7.2 1.4-.3 1.4-1s-.6-1.5-1.4-1.7c-.8-.2-1.4.3-1.4 1zm2.3.5c0 .5-.4.8-.9.7-.5-.1-.9-.6-.9-1.1 0-.5.4-.8.9-.7.5.1.9.6.9 1.1z"></path>
      </g>
    </g>
    <path d="M540.2 285.6c.3 0 .6-.5.9-.5-.4 0-.7.5-.9.5z" fill="#BE766C"></path>
    <path d="M639.9 544.4s-112.8-44-120.6-47.8c0 0-28.4-13-27.1-14.9 1.3-2 8-6.3 16.6-5.7 8.6.6 51.8 17.4 51.8 17.4s3.2.1 2.3-.5c-.9-.5-33.7-14.6-33.7-14.6l-4.2-2.8s-4.5-2.6 3.8-5.8c8.3-3.2 13.4-1.4 14-1.4.7.1 49.9 17.8 49.9 17.8s15.4 5 17.9 5.4c2.5.4 71.9 24.3 75.6 26.5.1.1-32.9 23.4-46.3 26.4z" fill="url(#paint54_linear)"></path>
    <path d="M525.699 459.3s-1.5 1.2-2.4 1.4c-.9.2-6.2-1.7-6.2-1.7s-2.9-.3-5.1 1.9c0 0-3.4 5.3.5 8.1 0 0 12.3 5.5 13.5 6.1 1.2.6 8.9 3.1 10.9 1.7 2-1.4 1.7-7.6.5-12.6-1.1-4.9-11.7-4.9-11.7-4.9z" fill="url(#paint55_linear)"></path>
    <path d="M508.3 469.4s-1.5 1.2-2.4 1.4c-.9.2-6.2-1.7-6.2-1.7s-2.9-.3-5.1 1.9c0 0-3.4 5.3.5 8.1 0 0 12.3 5.5 13.5 6.1 1.2.6 7.9 2.8 9.8 1.5 2-1.4 2.7-7.4 1.6-12.4s-11.7-4.9-11.7-4.9z" fill="url(#paint56_linear)"></path>
    <path d="M517.999 288.3s-1.4 2.2-4.2 4.6c0 0-5.3 3.8-2.8 6.8 0 0 7.3 6.3 13.2 6.2 5.9-.1 12.1-6.5 15.4-5.5 0 0-5.8-8-21.6-12.1z" fill="url(#paint57_linear)"></path>
    <path opacity=".25" d="M519.298 288.5c1 6.3-6.5 4.1-7.7 12.1" stroke="#002A3A" stroke-width=".303" stroke-miterlimit="10"></path>
    <path opacity=".1" d="M512.301 295.5s10.9 5.2 13.7 5.3l-4 3.6s-9.7-1.6-10.6-4.2c-.6-1.8.3-4.1.9-4.7z" fill="#000"></path>
    <path d="M507.7 358.4s-1.9 68.4-1.1 78.3c0 0 .3 43.6 2.5 45.5 2.1 2 9.6 7.4 11.9 1.5 2.3-5.9 1.9-82.8 1.9-82.8s1-2 1.1-.7c.2 1.3 2.1 65.7 2.1 65.7l.4 8.8s.7 3.4 6.1 3c5.4-.4 5.7-3 5.8-3.4.2-.5.8-76 .8-76s.7-16.1 1.1-18.1c.5-2-2.7-21-3.3-26.2-.1.1-22.5.7-29.3 4.4z" fill="url(#paint58_linear)"></path>
    <path opacity=".3" d="M526 466l.4 8.8s.7 3.4 6.1 3c5.4-.5 5.7-3 5.8-3.4.1-.3.4-26.6.6-48.2-4.3 4.1-8.9 7.7-13.7 10.8.4 15 .8 29 .8 29zm-17 16.2c2.1 2 9.6 7.4 11.9 1.5 1.2-3 1.6-24.9 1.8-45.4-5 2.9-10.4 5.2-16 6.7.2 12.8.8 35.8 2.3 37.2z" fill="#002A3A"></path>
    <path d="M537.798 293s5.2 1 6.3 7.2c1 11.1.2 20.6-2 28.6-1.4 11.6-2.4 22.5-2.2 31.6.9 5.4.8 13.1.6 12.5-6.4 6.5-33.3 2.2-33.3 2.2l-.1-4.4s2.3-46.6 7.9-60.8c0 0 1.6-4 8.8-9.8.1-.1 1.2-1 1.3-1 0 0 13 .7 12.6-4.7l.1-1.4z" fill="url(#paint59_linear)"></path>
    <path d="M526.598 344.7c-6.5 5.6-15.5 12.8-19.2 21-.2 3.1-.3 4.9-.3 4.9l.1 4.4s26.9 4.3 33.3-2.2c.2.6.2-7.1-.6-12.5-.2-9.2.7-20 2.2-31.6 1.8-6.4 2.6-13.7 2.3-22.1-2.9 14.2-7.3 28.5-17.8 38.1z" fill="url(#paint60_linear)"></path>
    <path opacity=".1" d="M510.801 329.1s15.9-4.3 20.1-7.2c4.2-2.9-.1-14.6-9.6-14.2-8.9.5-10.5 21.4-10.5 21.4z" fill="#000"></path>
    <path opacity=".1" d="M512 322.9s13.8-.1 18-3c4.2-2.9-.3-16.1-9.6-14.2-7.4 1.6-8.4 17.2-8.4 17.2z" fill="#000"></path>
    <path opacity=".6" d="M540.6 373.7c-13.9 2.7-25.8 7.9-32.2 1.4 0 .1 0 0-.1-.1-.1 2.8 0 4.9.1 4.6 6.4 6.5 17.6 5.5 31.5 2.8" fill="#002A3A"></path>
    <path opacity=".2" d="M537.701 294.2s1.3.9 1 1.5c-.2.6-2.6 5.8-9.8 4-2-.5-4.2-.9-4.6-2.9 0 0 3.6 3.5 8.9 1.7 0 0 5.2-1.1 4.5-4.3z" fill="#000"></path>
    <path d="M520.9 273.5L519 276s-.4 1.1.9 1.9c1.3.8 1.3-4.3 1.3-4.3" fill="#9D6741"></path>
    <path d="M524.8 265.5s-4 5.7-4.9 12.4c-.9 6.8.7 8.9 1.9 9.1 1.3.2 3.4 0 3.4 0l-1 9.6s4.7 5.7 13.6-.1c0 0-.2-9 .7-10 0 0 1.7-3.2 4.2-13.2 0 0 2.2-8.1-7.9-11.9.1 0-6.5-1.3-10 4.1z" fill="#9D6741"></path>
    <path opacity=".6" d="M537.499 294c-.3-.4-2.1 3.8-4.5 3.8-1.9 0-6 1.2-7.5.2-1-.7.2-3.9.1-3.7-.1.3.6-.8 1-1.4 1.4-1.8 5.2-8.4 4.9-9.5-.3-1.3-2.6-2.3-.9-4.7-.3 1.6 1.2 2.4 1.4 3.5.3 1.5 4.1 3 5 3.3.3.1.6.1.9 0" fill="#865228"></path>
    <path d="M522.401 269.4l-.2.4s-.1.1 0 .2 1.8 1 2.2 2.3c0 0-.1.3.1.3.1-.1.3-.5.3-1-.1-.5-1.1-1.6-2.1-2.2-.1 0-.2-.1-.3 0z" fill="#3F291D"></path>
    <path d="M522.431 272.734c.209-.57.125-1.125-.186-1.239-.311-.113-.733.257-.941.828-.208.57-.125 1.125.186 1.239.312.113.733-.257.941-.828z" fill="#2D2012"></path>
    <path d="M521.799 281.9c-.9.2-6.8-2-7.9-2.9 0 0 .7 2.6 3.3 3.7 0 0 2.8 1.4 4.6-.8z" fill="#fff"></path>
    <path d="M518.902 276s.8.8 1.1.9l.2.2-.4.8c.1 0-1.1-.5-.9-1.9z" fill="#865228"></path>
    <path d="M525.4 274.6c2.4-4.8 1.8-7.4-1-9.3.4-.9 2.4-6.6 9.3-5.8 1.3.2 5.7 1 6.4 1.8.7.8 7.2 4.2 5.3 12 0 0-2.3 10.4-7.1 13.2 0 0-1.6-.3-2.6-.6s-3.8-1-4.2-2.5c-.4-1.5-.5-2.1-.4-5.2.1-2.1 2-4.6.6-5.7-1.4-1.1-2.2-.8-2.9-.4-.7.4-2.4 5.1-2.7 6.1-.3.9-.3 7.9-.3 7.9s-.5 2.3-2 2.1c-1.5-.2-4.2-2.4-4.4-3.8-.2-1.4 0-5.9.6-6.8 0 0 .5 1.6.9 1.7.4.1 2.4-.3 3.3-1.7" fill="#321F13"></path>
    <path d="M537.698 290.9s-4.6 5.5-7.6 5.7c-3 .2-5.6-2.2-5.6-2.2s-.5 2.1-.1 3c1.4.9 3.4 3.1 9.5 1 .8-.3 4-1.5 3.8-3.5v-4zm-6.6-13.3c-.3.8-.6 1.3-.8 1.5-.6.4-1.3.6-2.6-.3-1.1-.8-1-2.9 0-4.2-.4 1.2-.3 2.5.5 3.2 1.3.9 2 .7 2.6.3.1-.2.2-.3.3-.5zm-7-11c1.5 1.9 2.7 4.8 1 8.4l-.9 2.4c.1-.1.2-.3.3-.4l1.2-3.2c1.8-3.6 1.5-6.1-1-8.2l-.6 1z" fill="#865228"></path>
    <path d="M548.798 274.2c-.3-.9-1.1-.9-1-2 .1-.3 0-.6-.1-.9.3-.5.5-1.1-.1-1.7-.8-.9-.3-1.1-.4-1.9-.1-.6-.4-1.1-1.1-1.4 0-.3-.1-.6-.3-.8-.8-.9-.3-1.1-.4-1.9-.1-.8-.7-1.5-1.8-1.6-1-.2-1.1.1-1.9-.6-.3-.3-.7-.6-1.2-.8-.1-.1-.2-.1-.3-.2-.4-.8-1.3-1.2-2.4-.9-.1 0-.3.1-.4.1-.4-.1-.7-.2-1.4-.7-.9-.7-2-1.5-3.6-1.3-1.2.1-1 1.1-2.5.7-1.1-.2-1.7 0-1.9.8-.1.1-.4.1-.7.2-1.3.1-.4 1.1-1.4 1.8-.5.4-.4.9-.3 1.4 0 .4.1.9.2 1.3-.4.9-1.4 1.2-1.4 1.2s.9.4 1.7.2v.1c.1.7-.5 1.5-.9 2.4-.2.4.6.4 1.3.5-.1.7-.2 1.4-.1 2.2 3.4 1.4 3.4.2 4.3.4 0 .4-.1.8-.1 1.2 0 .4.5.2 1 0 .1.7.3 1.4.5 2.1h.3c-.1.5.1 1 .8 1.7 0 0 .3.2.8.5-.1.2-.3.6-.2 1.2-.4.4-.8.6-.8.6s.5.2 1 .1c0 .1.1.2.2.3-.1.6-.5 1.3-.8 2-.2.3.4.3.9.3-.2.6-.3 1.3-.3 1.9 2.7 1.1 2.4-.5 3.5.1 0 0 1.4 1 1.7.4 0 0 .1.1.4.2l-7.3 1.3c0 1.1 3.9 2.6 3.9 2.6l-.1-1s-.3-1.7.3.2c.7 1.9 3.1 1.1 3.1 1.1s-.4-.9-.7-1.6c-.3-.8.6-.9 1.4-.1.8.8 2.8.1 2.2-.3-.3-.2-.3-.7-.4-1.3.3 0 .7-.2 1.2-.5.4.4 1.3 0 1.1 0 0 0-.4-.3-.5-.8.1-.3.3-.6.6-.8.3-.2.6-.7.8-1.3.9-.1 1.6-.8 1.7-1.9.2-1.1-.1-1.2.6-2.1.9-.6 1.6-1.4 1.3-2.7z" fill="#321F13"></path>
    <path d="M531 272.2h-.2.2zm16-5.1c-.2-.3-.5-.6-.8-.8 0-.3-.1-.6-.3-.8-.8-.9-.3-1.1-.4-1.9-.1-.8-.7-1.5-1.8-1.6-1-.2-1.1.1-1.9-.6-.3-.3-.7-.6-1.2-.8-.1-.1-.2-.1-.3-.2-.4-.8-1.3-1.2-2.4-.9-.1 0-.3.1-.4.1-.4-.1-.7-.2-1.4-.7-.9-.7-2-1.5-3.6-1.3-1.2.1-1 1.1-2.5.7-1.1-.2-1.7 0-1.9.8-.1.1-.4.1-.7.2-1.3.1-.4 1.1-1.4 1.8-.5.4-.4.9-.3 1.4 0 .4.1.9.2 1.3-.4.9-1.4 1.2-1.4 1.2s.1 0 .1.1c7.1-5.3 15.1-2.3 22.4 2z" fill="#442C1E"></path>
    <path d="M175.599 296l1.4 3.2s.1 1.3-1.4 1.8c-1.6.5-.3-4.9-.3-4.9" fill="#F7B89D"></path>
    <path d="M173.4 286.5c-2.4-6.6-9.8-6.9-9.8-6.9-4.8-.9-8.1-.4-10.2.6-1.6 2.8-.9 6.3 2.2 8.5-3-2.3-3.8-5.7-2.2-8.5-4.8 2.3-4.2 7.5-4.2 7.5.2 11.3 4.2 17.8 4.2 17.8.8 1.3-1.2 7.5-1.2 7.5 10-.2 14.5 3.5 14.5 3.5l.8-7.1s2.2.8 3.6.9c1.4.1 3.6-1.8 4.4-9.3.8-7.5-2.1-14.5-2.1-14.5z" fill="#F7B89D"></path>
    <path opacity=".3" d="M167.901 294.8c-.2-1-.4-1.8-.6-2-.6-.6-1.4-1.1-3.2-.3-1.6.7-1.9 3.2-1.1 5.1-.2-1.6.3-3.2 1.5-3.7 1.8-.8 2.6-.3 3.2.3 0 .1.1.3.2.6zm2.5 1.4c-1-4.3 1.4-7.3 3.4-9l.2 1.5c-2 1.7-4.2 4.6-3.3 8.9l-.3-1.4z" fill="#974A4B"></path>
    <path d="M174.945 295.891c.384-.046.632-.616.553-1.274-.078-.658-.453-1.155-.837-1.109-.384.046-.632.616-.553 1.274.078.658.453 1.155.837 1.109z" fill="#2D2012"></path>
    <path d="M177 299.2s-1.1.6-1.4.7l-.3.2.2 1c0-.1 1.5-.3 1.5-1.9z" fill="#E2A6A8"></path>
    <path d="M519.2 260.9c.3 0 .6-.5.9-.5-.4 0-.7.5-.9.5z" fill="#BE766C"></path>
    <path d="M469.898 249.6c.3 0 .6-.5.9-.5-.3 0-.6.5-.9.5z" fill="#2B4D60"></path>
    <path d="M179.3 504.2s-2.9.1-2.1.1c.8 0 3.3-2.6 3.3-2.6s7.5-2 9.7 1.4c0 0 1.5 4.6-1 7.4 0 0-6.5 5.3-7.3 6-.8.7-5.4 2.8-7.3 2.8-1.7 0-7.8-.5-7.8-4.5 0-1.1.4-4.6 1.7-5.8 3.5-3.5 10.8-4.8 10.8-4.8z" fill="url(#paint61_linear)"></path>
    <path d="M160.1 500s-2.9.1-2.1.1c.8 0 3.3-2.6 3.3-2.6s7.5-2 9.7 1.4c0 0 1.5 4.6-1 7.4 0 0-6.5 5.3-7.3 6-.8.7-5.4 2.8-7.3 2.8-1.7 0-7.8-.5-7.8-4.5 0-1.1.4-4.6 1.7-5.8 3.5-3.5 10.8-4.8 10.8-4.8z" fill="url(#paint62_linear)"></path>
    <path d="M182.601 407.7c.4-4.8 0-9.1 0-9.1h-.1v-2.4c-7.6-4.1-36-7.6-36-7.6-.7 5.8-1.8 11.4-1.2 13.5.1.4.2 1.6.3 3.2 0 .3 0 .6.1.9.4 7.3.9 21.4.9 21.4s.7 78.1.9 78.6c.2.5.5 3.3 6.4 3.8s6.7-3.3 6.7-3.3l.5-9.7s2.1-69.8 2.3-71.2c.2-1.4 1.3.7 1.3.7s-.4 73 2.1 79.4c2.5 6.4 10.8 3.6 13.1 1.4 2.3-2.2 2.7-37.5 2.7-37.5.5-7.9.3-43.5 0-62.1z" fill="url(#paint63_linear)"></path>
    <path d="M181.599 388s.5 0 .5.2c.1 2 .5 11.8.5 12.2 0 .5 0 0 0 0-22.3 9-28.1 2-37.4-1.6 0 0 .4-9 .8-11.2" fill="url(#paint64_linear)"></path>
    <path d="M133 348.5c1.3 6.1.5 5.8 2.5 8.6 2 2.7 4.6 11.6 8 13.6l1.6-19.6-12.1-2.6z" fill="#F7B89D"></path>
    <path d="M133 350c1.3 6.1.5 4.3 2.5 7.1 2 2.7 4.6 11.6 8 13.6l1.6-19.6L133 350z" fill="#CF9981"></path>
    <path opacity=".3" d="M144.9 353.7l.2-2.7-12.1-2c1 4.5 0 2.7 1.1 5.5 3.7-1.2 7.3-.9 10.8-.8z" fill="#2D2010"></path>
    <path d="M196.599 321.3c.3-.8 1.4-1.4 2.2-1.2l28.7 6.1c.9.2 1.4 1 1.1 1.9l-7.3 22.6c-.3.9-1.2 1.4-2.1 1.2l-30.3-7.8c-.9-.2-1.3-1.1-1-1.9l8.7-20.9z" fill="#285A6B"></path>
    <path opacity=".6" d="M198.8 322l-8.3 19.9 28.2 7.8 7.5-21.7-27.4-6z" fill="#121719"></path>
    <path d="M146.9 315.6s-12.6 12.2-12.6 13.6c0 1.4 3.1 12.9 7.8 39.7l1.1 4.6 1.4 8.8 1.3 3.3-.3 10.3c4.1 3.6 5.7 3.3 16.1 4.8 6.9 1.4 18.8-2.5 20.9-4 0 0-1.1-13.2-2.2-16.1-1.1-2.9-3.2-9.6-3.2-16.3 0-6.6.7-18.3 2-22.1 1.3-3.8 7.7-10.4 5.3-13.5-2.4-3.1-9.6-12.8-22.2-13.2-12.8-.5-14.3-1.2-15.4.1z" fill="url(#paint65_linear)"></path>
    <path d="M207.699 313.3c.1 0 .3-.2.4-.2-.1 0-.2.2-.4.2zm-18.7 25.7s.3-.9.9-1.1c.6-.2 2.2-1.5 2.2-1.5.7-.7 1.1-2.3 1-3.2-.1-.6-.5-.8-.7-.9-.4-.2-1.2 1.4-1.8 2.2-.6.8-2.6 1.1-3.3 1.3-.5.1-.8 1-.9 1.2-.4.8-.3 4.1.1 4.6s1.2 3.6 1.2 3.6l.6-.6c.4-.4 1.8-4.2 1.8-4.2l1-3.1c.1-.1-1.5 1.7-2.1 1.7z" fill="#9D6741"></path>
    <path d="M188.6 312c.1 0 .3-.2.4-.2-.1 0-.2.2-.4.2z" fill="#2D2010"></path>
    <path opacity=".2" d="M147.9 314.3l-4.1 4.3s7.6.7 10.3.5c2.7-.2 15.6 3.1 17.8 3.8 2.2.7 1.7-2.9 1.7-2.9s-5.1-4.5-8.7-4.9c-3.8-.4-14.7-1.4-14.7-1.4s-1.4-.5-2.3.6z" fill="#000"></path>
    <path d="M137.4 337.5l1 5s1.6 9.1-.1 9.1c-1.7 0-5.1 1.3-5.1 1.3l-.2-1c-1.5-10.6 1.2-22.8 1.2-22.8s1.4 1 2.4 4c0 .1 1 3.7.8 4.4z" fill="url(#paint66_linear)"></path>
    <g opacity=".5">
      <path opacity=".3" d="M146.9 315.6s-12.6 12.2-12.6 13.6c0 1.4 3.1 12.9 7.8 39.7l1.1 6.4 2.6 6.3v14.3c3.9 3.8 15.9 6.4 25.8 4.6l10.9-3.7s-.5-14-1.6-16.9c-1.1-2.9-3.7-9-3.7-15.6s.7-18.3 2-22.1c1.3-3.8 7.7-10.4 5.3-13.5-2.4-3.1-9.6-12.8-22.2-13.2-12.8-.5-14.3-1.2-15.4.1z" fill="#002A39"></path>
    </g>
    <path d="M184.298 329.5s4.3 12.5 5.6 18c1.5 5.8 7.2 13.6 7.2 13.6s5.3-3.8 7.5-4.4c2.2-.7 5.7-4.2 5.7-4.2l3.4-1.6s.8-.2 2.1 1.8 1.5 4.7 1.5 4.7l-3.5 2s-8.2 9.1-11.9 11.3c0 0-5.7 4-6.6 5.1-.9 1.1-2.2 2.4-3.3 1.5-1.1-.9-5.3-8-6.9-10-1-1.3-3.9-7.4-5.7-10.4-1-1.7-2.6 1.5-2.7.7-.2-2.4-4.4-15.2-4-17.6.4-2.4.7-10.8 3.3-13 2.6-2.2 5.5-1.1 5.5-1.1l2.8 3.6z" fill="url(#paint67_linear)"></path>
    <path d="M176.899 357.799s1.4 1.401 3.6.801 1.1-5.6 1.1-5.6l-4.7 2.7v2.099z" fill="#56504A"></path>
    <path d="M227.2 346.2c.8-1.2-.5-2.4-.5-2.4.3-.4.4-1.5.2-2.1-.2-.6-1.3-1-1.3-1 .3-.3.2-1.1-.6-1.5-.8-.4-1.9.9-1.9.9s-1.9 2.2-2.3 2.3c-.4.2-3 1.3-3.3 1.7-.3.5-.6 1.3-1.5 2-.8.7-1.9 4-2.2 4.6l-3.4 1.6s-3.5 3.5-5.7 4.2c-2.2.7-7.5 4.4-7.5 4.4s-5.7-7.8-7.2-13.6c-1.4-5.4-5.6-18-5.6-18l-2.6-3.8s-2.9-1.1-5.5 1.1-2.9 10.6-3.3 13c-.4 2.4 5.6 15 5.9 17.4.2 2.4 5.7 9.9 7.3 11.9 1.5 2 5 7.2 6.1 8 1.1.9 2.4-.4 3.3-1.5.9-1.1 6.6-5.1 6.6-5.1 3.8-2.2 11.9-11.3 11.9-11.3l3.9-2.2c.1-.1.2-.1.3-.2l.4-.2c.8-.5 1.7-1.3 2.3-1.5.9-.3 2-1.7 2.2-2 .2-.4 3.3-3.3 3.7-3.6l.1-.1c.1-.1.2-.2.3-.4.8-1-.1-2.6-.1-2.6z" fill="#F7B89D"></path>
    <g opacity=".2" fill="#2D2010">
      <path opacity=".2" d="M215.401 347.3c0-.1.1-.3.2-.5-.1.2-.2.3-.3.5h.1z"></path>
      <path opacity=".2" d="M190.101 347.9c.8-.1 1.5 4.5 2.4 6 .5.8-7.1 5.2-7.1 6.3 0 2.9 1.4 4.6 2.1 5.6 1.5 2 5 7.2 6.1 8 1.1.8 2.4-.4 3.3-1.5.9-1.1 6.6-5.1 6.6-5.1 3.8-2.2 11.9-11.3 11.9-11.3l3.9-2.2c.1-.1.2-.1.3-.2l.4-.2c.8-.5 1.7-1.3 2.3-1.5.9-.3 2-1.7 2.2-2 .2-.2 1.7-1.8 2.8-2.8.1.6.2 1.5-.4 2.3-.1.2-.2.3-.3.4 0 0 0 .1-.1.1-.4.3-3.4 3.2-3.7 3.6-.3.4-1.3 1.7-2.2 2-.6.2-1.5 1-2.3 1.5l-.4.2c-.1.1-.2.1-.3.2l-3.9 2.2s-8.2 9.1-11.9 11.3c0 0-5.7 4-6.6 5.1-.9 1.1-2.2 2.4-3.3 1.5-1.1-.9-4.6-6-6.1-8s-7.1-9.5-7.3-11.9l-.7-3c.2-.1 2.3-5.8 12.3-6.6z"></path>
    </g>
    <path d="M198.601 364.6s5.5-4.7 7.7-5.3c2.2-.7 5.1-5 5.1-5l3.4-1.6c.2-.7 1.4-3.9 2.2-4.6.9-.8 1.2-1.6 1.5-2 .3-.5 2.9-1.6 3.3-1.7.4-.2 2.3-2.3 2.3-2.3s1.2-1.3 1.9-.9.9 1.2.6 1.5l.4.2c0-.4 0-.7-.1-1-.1-.5-1.3-1-1.3-1 .3-.3.2-1.1-.6-1.5-.8-.4-1.9.9-1.9.9s-1.9 2.2-2.3 2.3c-.4.2-3 1.3-3.3 1.7-.3.5-.6 1.3-1.5 2-.8.7-1.9 4-2.2 4.6l-3.4 1.6s-3.5 3.5-5.7 4.2c-2.2.7-7.5 4.4-7.5 4.4s-1.6-2.2-3.4-5.2c2 3.8 4.8 8.7 4.8 8.7z" fill="#FFCDBB"></path>
    <path d="M221.802 330.2l-7.9-1.9.2-.4 7.8 1.8-.1.5zM222.102 331.4l-8.7-2.1.2-.4 8.5 2v.5zM218.4 331.7l-5.6-1.4.2-.4 5.4 1.3v.5z" fill="#199ED9"></path>
    <path d="M86.402 584.4s79-52.4 84.5-57.2c0 0 20.4-16.7 18.8-18-1.5-1.3-7.9-3.4-14.8-1.1s-38.4 25.3-38.4 25.3-2.6.7-1.9.1c.6-.6 24.3-19.2 24.3-19.2l2.8-3.1s3.1-3.1-4.3-3.9c-7.4-.8-11.2 1.7-11.7 1.9-.5.2-36.8 25.3-36.8 25.3s-11.5 7.4-13.4 8.3c-1.9.8-53.3 35.4-55.9 37.9 0 .1 35.3 4.2 46.8 3.7z" fill="url(#paint68_linear)"></path>
    <g opacity=".7" fill="#002A3A">
      <path opacity=".25" d="M447.099 279.2l.1-.1s0 .1-.1.1z"></path>
      <path opacity=".25" d="M523.398 309.2s-15.6-4-18.7-2.9c0 0-.7.4-1.5 1.4-2.1 0-4.2 0-4.4-.4 0 0-5.6-4.4-15.1-6.6 0 0-9.3-3.6-15.9-7.6l-3.6-3.1-1.4-2.3s-1.4-4.4-2.1-5.2c-.1-.1-.1-.2-.2-.3-.6-.9-1.6-2.7-1.6-2.7s-1.4-1.2-1.6-1.6c-.1-.3-.6-.8-1.1-.7h-.2c-.2.1-.3.2-.4.5 0 0-.2 1.3 1 3 .1.1.2.2.3.4.5.7 1 1.5 1.1 1.9-.2-.1-1.1-.7-1.1-.7h-.1c-1.1-.8-3-2.2-3.1-2.3-.2-.1-3.8-3.4-4.7-2.8 0 0-.3.1-.4.6 0 .4.2 1.2 1.5 2.3 2.5 2.3 2.5 2.6 2.5 2.6v.3c0 .1 0 .3-.2.2-.2-.1-1.2-.9-1.8-1.5-.2-.2-.4-.4-.8-.7-.3-.4-1.2-1.3-2-1.6h-.1c-.2-.1-.5-.1-.6-.1-.2.1-.3.1-.4.1 0-.1.1-.1.1-.1l-.2.2c0 .1-.1.1-.1.2v.1c0 .5.2 1.4 1.6 2.8l2.4 2.2s.1.1.1.2c0 0-.1 0-.2-.1-.3-.3-2.9-2.3-2.9-2.3s-1.1-1.3-2.2-1.3c-.1 0-.3.1-.4.4 0 .4.2 1.1 1.4 2.2l.3.3-.1-.1-.1-.1h-.3s-.1 0-.1.1c-.1.1-.3.3-.3.7 0 .5.2 1.1 1.2 2 2 1.7 2.8 2 3.2 2.2.4.2 4 3.5 5.5 4 .8.3 1.5.5 2 .8.1.2.4.6 1.1 1.2 0 0 8.2 7.2 12.5 10.1.2.1.3.2.4.3.1 0 .1.1.1.1.4.2.7.4 1 .5.2.1.3.2.5.3 1.7 1 3.7 2.8 6.6 4.5 2.6 1.5 5.9 3.1 10.5 4.1 0 0 5.5 1.2 10.5 2.4.3 2 1.1 3.3 2.9 3.6h.2v.1c0 .1 1.4.4 1.5.5.3.1.5.2.8.2 2.1.4 11.2 2.3 13.9 3.1 0 0 11.1 2.1 12.1-5.3.4.1 1.4-7.9-8.8-10.3z"></path>
    </g>
    <path opacity=".6" d="M503.998 301.7s-2.7 1.4-3.3 6.1c-.6 4.7-.2 8.2 2.8 8.7s4.1-11.4 4-11.8c-.1-.3-1-3.3-3.5-3z" fill="#002A3A"></path>
    <path d="M498.098 302.8s-5.6-4.4-15.1-6.6c0 0-15.1-5.9-20.4-10.9 0 0-5 .6-4.6 4.3 0 0 10.7 10.2 14.1 11.7 3.4 1.6 7.1 6.6 17.6 8.9 0 0 15.3 3.4 16.5 4.2 0 0 4.1-6.6 1.3-10.8-.5-.9-9-.1-9.4-.8z" fill="#9D6741"></path>
    <path d="M468.398 289.7l-5-4.2-1.4-2.3s-1.4-4.4-2.1-5.2c-.7-.8-1.7-3-1.7-3s-1.4-1.2-1.6-1.6c-.1-.4-1.3-1.3-1.7-.2 0 0-.2 1.3 1 3 .7 1 1.6 2.3 1.6 2.3s.4.3-.1.1c-.4-.2-1.1-.7-1.2-.7-.3 0-3-2.2-3.2-2.3-.2-.1-3.8-3.4-4.7-2.8 0 0-1.3.6 1.1 2.9 2.5 2.3 2.5 2.6 2.5 2.6s.2.7-.2.6c-.4-.1-2.5-2.1-2.5-2.1s-1.9-2.2-2.8-1.9c-.9.4-.1-.1-.1-.1s-1.5.7 1.2 3.5l2.4 2.2s.2.5-.1.2c-.3-.3-2.9-2.3-2.9-2.3s-1.1-1.3-2.2-1.3c-.3 0-1.1.6 1 2.6l.4.4s-.4-.3-.6-.3c-.2 0-1.2 1 .8 2.7 2 1.7 2.8 2 3.2 2.2.4.2 4 3.5 5.5 4s2.7 1.1 3 1.6c.3.5 6.2 5.2 6.2 5.2l4.2-5.8z" fill="#9D6741"></path>
    <path opacity=".3" d="M458.297 275s-1.4-1.2-1.6-1.6c-.1-.4-1.3-1.3-1.7-.2 0 0-.2 1.3 1 3 .3.4.5.8.8 1.1 1-.1 2.1 0 3.1.4-.7-.9-1.6-2.7-1.6-2.7z" fill="#865228"></path>
    <path opacity=".5" d="M455.498 278.6c.2-.1.9-.4 1.1-.5-.9-.6-3.4-2.6-3.6-2.6-.2-.1-3.8-3.4-4.7-2.8 0 0-1.3.6 1.1 2.9 2.5 2.3 2.5 2.6 2.5 2.6s.2.7-.2.6c-.3-.1-2.5-2.1-2.5-2.1s-1.9-2.2-2.8-1.9c-.2.1-.3.1-.4.1-.2.4-.3 1.3 1.5 3.2l2.4 2.2s.2.5-.1.2c-.3-.3-2.9-2.3-2.9-2.3s-1.1-1.3-2.2-1.3c-.3 0-1.1.6 1 2.6l.4.4s-.4-.3-.6-.3c-.2 0-1.2 1 .8 2.7 1.8 1.6 3.4 2.3 3.4 2.3l1.4 1.1s.6-.9.4-1.6c0-.2.6-.4.7-.6.2-.4.3-.9.5-1.2.5-.6.9-.7 1.1-1.1.4-.7.7-1 .6-1.3.1-.4.3-.9 1.1-1.3z" fill="#865228"></path>
    <path d="M454.999 273.2s-.2 1.3 1 3c.7 1 1.5 2.2 1.4 2.6l.8.6s-.4-1.2-.6-1.6c-.1-.4-1.5-2.6-1.9-3.4-.4-.7.2-1.4.2-1.4l.2-.2c-.3-.3-.8-.3-1.1.4zm-4.8 4.1s-2.1-2.1-3-2.6c.3.8 3 3.5 4.2 4.1.2.1.4.1.4.1l-1.6-1.6zm-.1 3.3c-.6-.5-3.6-2.9-3.6-2.9l-.4-.4c-.6.2 4.6 4.3 4.1 3.8l-.1-.5zm-.3 2.1l-3.9-3.1h-.3s1.4 1.3 1.8 1.7c.4.4 1.8 1.2 2 1.4.4.3.4 0 .4 0z" fill="#865228"></path>
    <path d="M457.398 278.5s-1.1-.7-1.2-.7c-.1 0 0 .3 0 .3s1.1.7 1.4 1c.3.3.6.3.6.2l-.8-.8zm2.6 9.8s-.6-.3-1 .1-1 1.2-1 1.3c0 .1.3.3.1.2-.2-.1-.9-.8-2.2-1.2 0 0 .8-.2 1.5-.5.7-.4.8-1.3 1.2-1.1.4.2 1.4 1.2 1.4 1.2z" fill="#865228"></path>
    <path d="M505.298 303.3c-.2-.1-3.3-.2-3.3-.2s.8 7.8-2.2 7.1c-4.5-1.1-8.8-2.1-8.8-2.1-10.6-2.3-14.3-7.3-17.6-8.9-3.4-1.6-13.5-11-13.5-11-.9-.5-3.2.3-2.3.6 0 0-1.2.1.8 1.6 0 0 10.7 9.4 14.1 11 3.4 1.6 7.1 6.6 17.6 8.9 0 0 17 3.8 18.2 4.6-.1.1-1-11.6-3-11.6z" fill="#865228"></path>
    <path d="M503.999 301.7c2.7.6 2.1 5.6 1.4 10.1 0 0-1.2 3.1-1.8 4.8 0 .1 1.4.4 1.5.5.3.1.5.2.8.2 2.1.4 11.2 2.3 13.9 3.1 0 0 11.1 2.1 12.1-5.3 0 0 1-8-9.2-10.4-.1 0-15.7-4.1-18.7-3z" fill="url(#paint69_linear)"></path>
    <path opacity=".25" d="M506.599 317c.1.1 7.5-12.2 3.4-15" stroke="#002A3A" stroke-width=".303" stroke-miterlimit="10"></path>
    <path opacity=".3" d="M540.799 294.5s2.1 2 2.6 3c.5 1.1-.4 4.6-2.5 5.5-2.1 1-13.9.5-15.3-.2-1.4-.7 1.6-5.5 1.6-5.5s4.8 3.2 9 2.2c4.1-1 4.6-5 4.6-5z" fill="#3B4244"></path>
    <path d="M537.799 292.4s2.1 2 2.6 3-.4 4.6-2.5 5.5c-2.1 1-14.8 1.3-15.3-.2-.3-.8 1.6-4.6 1.6-4.6s4.9 2.3 9 1.2c4.2-.9 4.6-4.9 4.6-4.9z" fill="url(#paint70_linear)"></path>
    <path d="M177.201 280.7s-1.6-4.4-6-4.1c0 0 .7.6-.1 1.2-.8.6-2.3-.1-3.4.3s-8.8.7-9.9.8c-.5 0-2.4.2-4.3 1-1.8 2.9-1.1 6.4 2 8.8-3.1-2.3-3.8-5.9-2-8.8-2.5 1.1-5 3.4-5 8.4 0 0-.2 13.3 4.2 17.5 0 0 .8.9 2 .8 1.2-.1 6.2-.8 7-2.3.8-1.5 4.5-2 1.8-5.9-1.3-1.9-1.1-5.1.7-5.9 1.8-.8 2.6-.3 3.2.3.6.6 1.3 6.1 1.4 7.2l2.2-.6-.5-3.2c-1.3-5.8 3.3-9.2 5.3-10.2 2-.9 1.4-5.3 1.4-5.3z" fill="#CA603C"></path>
    <path d="M148.602 290.2c.1 3.8.8 12.4 4.2 15.6 0 0 .8.9 2 .8 1.2-.1 6.2-.8 7-2.3.8-1.5 4.5-2 1.8-5.9-.8-1.1-1-2.8-.7-4.1-4.8.9-9.8 2.7-14.3-4.1z" fill="#AA4D33"></path>
    <path opacity=".3" d="M166.598 315.5c0-.1-.1-.1-.1-.2 0 .2.1.3.1.2zm-3.3-10.8l-.4.1c.8-.6 1.7-1.2 1.8-2.3.7-.1 3-.9 3-.9l-.4-.6c-1.1.4-2.5-.5-2.5-.5s-.1.3-.2.7c0-.1-.1-.3-.2-.4 0 1.8-2.2 2.3-2.7 3.4-.8 1.5-5.8 2.2-7 2.3-.4 0-.8 0-1.1-.2l-1.2 6.4c.9-.8 12.7 1.1 14.1 2.5-.2-.4-.5-1.1-.7-1.6l1.3.3.3-4.6s3.6 1.7 4.7.8c0 0-7.3-1.8-8.7-5.3" fill="#974A4B"></path>
    <path opacity=".2" d="M161.498 307.8c1.8-3.2 2.4-5.5 2.4-5.5-2 1.4-10.4 4.1-10.4 4.1l-.6 3c3 1.4 6.1.3 8.6-1.6z" fill="#2D2010"></path>
    <path d="M149 313.5l-4.2 4s7.8.8 10.4.6c2.6-.2 14.7 2.7 16.9 3.4 2.2.7 1.3-1.9 1.3-1.9s-3.5-4.3-7.1-5.6c-3.5-1.3-14-1.1-14-1.1s-2.4-.5-3.3.6z" fill="url(#paint71_linear)"></path>
    <path opacity=".6" d="M212.002 329.1l-2.7-.4-3.7 2.8" stroke="#FCFCFC" stroke-width=".25" stroke-miterlimit="10"></path>
    <path d="M167.2 278.5c4.3-.6 7.1-.2 8.8.6-.8-2.2-3.6-4.3-11.3-3.2 0 0-.5 0-.1.4 0 0 .8.4.5.8-.3.4-2.1-2-7.3-.1 0 0 1.7 1.1 0 1.2 0 0-.7.1-1.2.4-.2.1-1.3.3-2.6.7a6.298 6.298 0 00-1.3 4.7c2.4-2.1 6-2.7 6.4-2.8.6-.3 1.2-.4 1.2-.4 1.7-.1 0-1.2 0-1.2 5.2-1.9 7 .5 7.3.1.3-.4-.5-.8-.5-.8-.4-.4.1-.4.1-.4z" fill="#DB6849"></path>
    <path d="M203.8 335.1l.3-.9c.4-1.2-.4-2.4-1.7-2.7-1.3-.3-2.8.4-3.2 1.5l-.3.8-1-.2-1.9 4.5 7.4 2 1.6-4.9-1.2-.1zm-3.5-1.9c.3-.7 1.1-1 1.8-.8.8.2 1.2.8 1 1.5l-.3 1-2.8-.7.3-1z" fill="#39EAC8"></path>
    <path d="M175.399 291.4v.4s0 .2-.1.2-2.1.1-3 1.1c0 0-.1.3-.2.2-.1-.1-.1-.6.2-1 .3-.4 1.7-.9 2.9-1.1 0 0 .1 0 .2.2z" fill="#AA4D33"></path>
  </g>
  <defs>
    <linearGradient id="paint3_linear" x1="458.508" y1="266.314" x2="590.036" y2="266.314" gradientUnits="userSpaceOnUse">
      <stop offset=".002" stop-color="#1DEFCB" stop-opacity="0"></stop>
      <stop offset="1" stop-color="#1DEFCB"></stop>
    </linearGradient>
    <linearGradient id="paint4_linear" x1="142.763" y1="265.235" x2="339.253" y2="265.235" gradientUnits="userSpaceOnUse">
      <stop offset=".002" stop-color="#1DEFCB" stop-opacity="0"></stop>
      <stop offset="1" stop-color="#1DEFCB"></stop>
    </linearGradient>
    <linearGradient id="paint5_linear" x1="186.263" y1="287.568" x2="382.753" y2="287.568" gradientUnits="userSpaceOnUse">
      <stop offset=".002" stop-color="#1DEFCB" stop-opacity="0"></stop>
      <stop offset="1" stop-color="#1DEFCB"></stop>
    </linearGradient>
    <linearGradient id="paint6_linear" x1="608.564" y1="189.444" x2="387.904" y2="146.719" gradientUnits="userSpaceOnUse">
      <stop stop-color="#0FF" stop-opacity="0"></stop>
      <stop offset="1" stop-color="#0FF" stop-opacity=".6"></stop>
    </linearGradient>
    <linearGradient id="paint7_linear" x1="631.162" y1="176.76" x2="410.501" y2="134.036" gradientUnits="userSpaceOnUse">
      <stop offset=".078" stop-color="#0FF" stop-opacity=".2"></stop>
      <stop offset="1" stop-color="#0FF" stop-opacity=".3"></stop>
    </linearGradient>
    <linearGradient id="paint8_linear" x1="566.769" y1="154.825" x2="443.347" y2="154.825" gradientUnits="userSpaceOnUse">
      <stop offset=".078" stop-color="#0FF" stop-opacity=".2"></stop>
      <stop offset="1" stop-color="#02F" stop-opacity=".3"></stop>
    </linearGradient>
    <linearGradient id="paint18_linear" x1="566.769" y1="179.204" x2="443.347" y2="179.204" gradientUnits="userSpaceOnUse">
      <stop offset=".078" stop-color="#0FF" stop-opacity=".2"></stop>
      <stop offset="1" stop-color="#02F" stop-opacity=".3"></stop>
    </linearGradient>
    <linearGradient id="paint28_linear" x1="155.266" y1="139.648" x2="285.919" y2="139.648" gradientUnits="userSpaceOnUse">
      <stop stop-color="#0FF" stop-opacity=".4"></stop>
      <stop offset=".922" stop-color="#0FF" stop-opacity="0"></stop>
    </linearGradient>
    <linearGradient id="paint29_linear" x1="177.266" y1="122.648" x2="307.919" y2="122.648" gradientUnits="userSpaceOnUse">
      <stop stop-color="#0FF" stop-opacity=".2"></stop>
      <stop offset=".922" stop-color="#0FF" stop-opacity="0"></stop>
    </linearGradient>
    <linearGradient id="paint30_linear" x1="197.266" y1="110.648" x2="327.919" y2="110.648" gradientUnits="userSpaceOnUse">
      <stop stop-color="#0FF" stop-opacity=".1"></stop>
      <stop offset=".922" stop-color="#0FF" stop-opacity="0"></stop>
    </linearGradient>
    <linearGradient id="paint31_linear" x1="201.259" y1="134.054" x2="247.093" y2="134.054" gradientUnits="userSpaceOnUse">
      <stop offset=".002" stop-color="#1DEFCB" stop-opacity=".2"></stop>
      <stop offset="1" stop-color="#1DEFFF" stop-opacity=".6"></stop>
    </linearGradient>
    <linearGradient id="paint32_linear" x1="254.424" y1="141.898" x2="261.591" y2="141.898" gradientUnits="userSpaceOnUse">
      <stop offset=".002" stop-color="#1DEFCB" stop-opacity=".2"></stop>
      <stop offset="1" stop-color="#1DEFFF" stop-opacity=".6"></stop>
    </linearGradient>
    <linearGradient id="paint33_linear" x1="215.424" y1="156.061" x2="261.591" y2="156.061" gradientUnits="userSpaceOnUse">
      <stop offset=".002" stop-color="#1DEFCB" stop-opacity=".2"></stop>
      <stop offset="1" stop-color="#1DEFFF" stop-opacity=".6"></stop>
    </linearGradient>
    <linearGradient id="paint34_linear" x1="201.259" y1="148.161" x2="209.426" y2="148.161" gradientUnits="userSpaceOnUse">
      <stop offset=".002" stop-color="#1DEFCB" stop-opacity=".2"></stop>
      <stop offset="1" stop-color="#1DEFFF" stop-opacity=".6"></stop>
    </linearGradient>
    <linearGradient id="paint35_linear" x1="227.593" y1="145.351" x2="242.759" y2="145.351" gradientUnits="userSpaceOnUse">
      <stop offset=".002" stop-color="#1DEFCB" stop-opacity=".1"></stop>
      <stop offset="1" stop-color="#1DEFFF" stop-opacity=".6"></stop>
    </linearGradient>
    <linearGradient id="paint36_linear" x1="201.259" y1="139.743" x2="220.926" y2="139.743" gradientUnits="userSpaceOnUse">
      <stop offset=".002" stop-color="#42F4FF" stop-opacity="0"></stop>
      <stop offset="1" stop-color="#40F2FE"></stop>
    </linearGradient>
    <linearGradient id="paint37_linear" x1="250.259" y1="150.188" x2="261.593" y2="150.188" gradientUnits="userSpaceOnUse">
      <stop offset=".002" stop-color="#00D4FF" stop-opacity="0"></stop>
      <stop offset="1" stop-color="#40F2FE"></stop>
    </linearGradient>
    <linearGradient id="paint38_linear" x1="235.759" y1="129.774" x2="261.593" y2="129.774" gradientUnits="userSpaceOnUse">
      <stop offset=".002" stop-color="#1DEFCB" stop-opacity=".2"></stop>
      <stop offset="1" stop-color="#1DEFFF" stop-opacity=".6"></stop>
    </linearGradient>
    <linearGradient id="paint39_linear" x1="201.259" y1="122.305" x2="228.259" y2="122.305" gradientUnits="userSpaceOnUse">
      <stop offset=".002" stop-color="#1DEFCB" stop-opacity=".2"></stop>
      <stop offset="1" stop-color="#1DEFFF" stop-opacity=".6"></stop>
    </linearGradient>
    <linearGradient id="paint40_linear" x1="348.924" y1="288.344" x2="454.355" y2="288.344" gradientUnits="userSpaceOnUse">
      <stop stop-color="#2C6BFF" stop-opacity=".8"></stop>
      <stop offset=".507" stop-color="#1B5CFF" stop-opacity=".911"></stop>
      <stop offset="1" stop-color="#0D4FFF" stop-opacity=".6"></stop>
    </linearGradient>
    <linearGradient id="paint41_linear" x1="298.298" y1="261.847" x2="326.386" y2="377.653" gradientUnits="userSpaceOnUse">
      <stop offset=".506" stop-color="#0FF" stop-opacity="0"></stop>
      <stop offset="1" stop-color="#0FF"></stop>
    </linearGradient>
    <linearGradient id="paint42_linear" x1="405.605" y1="255.879" x2="323.605" y2="410.546" gradientUnits="userSpaceOnUse">
      <stop offset=".506" stop-color="#0FF" stop-opacity="0"></stop>
      <stop offset="1" stop-color="#0FF"></stop>
    </linearGradient>
    <linearGradient id="paint43_linear" x1="316.91" y1="336.984" x2="414.727" y2="336.984" gradientUnits="userSpaceOnUse">
      <stop offset=".002" stop-color="#1DEFCB" stop-opacity="0"></stop>
      <stop offset="1" stop-color="#1DEFFF"></stop>
    </linearGradient>
    <linearGradient id="paint44_linear" x1="295.588" y1="205.037" x2="356.104" y2="261.115" gradientUnits="userSpaceOnUse">
      <stop offset=".506" stop-color="#0FF" stop-opacity="0"></stop>
      <stop offset="1" stop-color="#0FF"></stop>
    </linearGradient>
    <linearGradient id="paint45_linear" x1="312.526" y1="223.867" x2="279.08" y2="172.666" gradientUnits="userSpaceOnUse">
      <stop offset=".506" stop-color="#0FF" stop-opacity="0"></stop>
      <stop offset="1" stop-color="#0FF"></stop>
    </linearGradient>
    <linearGradient id="paint46_linear" x1="252.743" y1="318.204" x2="347.502" y2="318.204" gradientUnits="userSpaceOnUse">
      <stop offset=".002" stop-color="#1DEFCB" stop-opacity="0"></stop>
      <stop offset="1" stop-color="#1DEFFF"></stop>
    </linearGradient>
    <linearGradient id="paint47_linear" x1="226.594" y1="150.879" x2="316.083" y2="150.879" gradientUnits="userSpaceOnUse">
      <stop offset=".51" stop-color="#28C9FF" stop-opacity=".8"></stop>
      <stop offset="1" stop-color="#2BDCFF"></stop>
    </linearGradient>
    <linearGradient id="paint48_linear" x1="436.402" y1="187.556" x2="322.123" y2="116.277" gradientUnits="userSpaceOnUse">
      <stop offset=".51" stop-color="#28C9FF" stop-opacity=".5"></stop>
      <stop offset="1" stop-color="#2BDCFF"></stop>
    </linearGradient>
    <linearGradient id="paint49_linear" x1="348.424" y1="223.967" x2="406.082" y2="223.967" gradientUnits="userSpaceOnUse">
      <stop stop-color="#0D4FFF"></stop>
      <stop offset="1" stop-color="#2C6BFF" stop-opacity="0"></stop>
    </linearGradient>
    <linearGradient id="paint50_linear" x1="416.347" y1="168.281" x2="484.603" y2="168.281" gradientUnits="userSpaceOnUse">
      <stop offset=".51" stop-color="#28C9FF" stop-opacity=".8"></stop>
      <stop offset="1" stop-color="#2BDCFF"></stop>
    </linearGradient>
    <linearGradient id="paint51_linear" x1="251.923" y1="213.871" x2="379.323" y2="213.871" gradientUnits="userSpaceOnUse">
      <stop offset=".7" stop-color="#0FF" stop-opacity="0"></stop>
      <stop offset="1" stop-color="#0FF"></stop>
    </linearGradient>
    <linearGradient id="paint52_linear" x1="253.664" y1="177.776" x2="335.762" y2="177.776" gradientUnits="userSpaceOnUse">
      <stop offset=".002" stop-color="#1DEFCB" stop-opacity="0"></stop>
      <stop offset="1" stop-color="#1DEFFF"></stop>
    </linearGradient>
    <linearGradient id="paint53_linear" x1="413.299" y1="249.147" x2="440.075" y2="215.676" gradientUnits="userSpaceOnUse">
      <stop offset=".506" stop-color="#0FF" stop-opacity="0"></stop>
      <stop offset="1" stop-color="#0FF"></stop>
    </linearGradient>
    <linearGradient id="paint54_linear" x1="645.098" y1="524.065" x2="615.236" y2="451.868" gradientUnits="userSpaceOnUse">
      <stop offset=".002" stop-color="#0D4F6D" stop-opacity="0"></stop>
      <stop offset=".51" stop-color="#0D4F6D" stop-opacity=".05"></stop>
      <stop offset="1" stop-color="#0D4F6D" stop-opacity=".3"></stop>
    </linearGradient>
    <linearGradient id="paint55_linear" x1="550.526" y1="467.458" x2="572.855" y2="475.889" gradientUnits="userSpaceOnUse">
      <stop stop-color="#1F3E4C"></stop>
      <stop offset="1" stop-color="#0D4F6D"></stop>
    </linearGradient>
    <linearGradient id="paint56_linear" x1="533.052" y1="477.539" x2="554.682" y2="485.706" gradientUnits="userSpaceOnUse">
      <stop stop-color="#1F3E4C"></stop>
      <stop offset="1" stop-color="#0D4F6D"></stop>
    </linearGradient>
    <linearGradient id="paint57_linear" x1="510.566" y1="295.336" x2="539.406" y2="300.336" gradientUnits="userSpaceOnUse">
      <stop stop-color="#fff"></stop>
      <stop offset="1" stop-color="#A4B7BC"></stop>
    </linearGradient>
    <linearGradient id="paint58_linear" x1="522.764" y1="373.48" x2="524.319" y2="462.156" gradientUnits="userSpaceOnUse">
      <stop stop-color="#16366C"></stop>
      <stop offset="1" stop-color="#1D478F"></stop>
    </linearGradient>
    <linearGradient id="paint59_linear" x1="507.092" y1="334.742" x2="544.479" y2="334.742" gradientUnits="userSpaceOnUse">
      <stop stop-color="#fff"></stop>
      <stop offset="1" stop-color="#A4B7BC"></stop>
    </linearGradient>
    <linearGradient id="paint60_linear" x1="507.092" y1="341.493" x2="544.415" y2="341.493" gradientUnits="userSpaceOnUse">
      <stop stop-color="#fff"></stop>
      <stop offset="1" stop-color="#A4B7BC"></stop>
    </linearGradient>
    <linearGradient id="paint61_linear" x1="188.245" y1="504.149" x2="170.208" y2="515.997" gradientUnits="userSpaceOnUse">
      <stop stop-color="#1F3E4C"></stop>
      <stop offset="1" stop-color="#0D4F6D"></stop>
    </linearGradient>
    <linearGradient id="paint62_linear" x1="169.043" y1="499.94" x2="151.005" y2="511.788" gradientUnits="userSpaceOnUse">
      <stop stop-color="#1F3E4C"></stop>
      <stop offset="1" stop-color="#0D4F6D"></stop>
    </linearGradient>
    <linearGradient id="paint63_linear" x1="163.715" y1="444.261" x2="162.315" y2="526.871" gradientUnits="userSpaceOnUse">
      <stop stop-color="#16366C"></stop>
      <stop offset="1" stop-color="#1D4777"></stop>
    </linearGradient>
    <linearGradient id="paint64_linear" x1="163.959" y1="401.005" x2="163.959" y2="388.449" gradientUnits="userSpaceOnUse">
      <stop stop-color="#16366C"></stop>
      <stop offset="1" stop-color="#1D478F"></stop>
    </linearGradient>
    <linearGradient id="paint65_linear" x1="156.412" y1="386.881" x2="159.912" y2="344.381" gradientUnits="userSpaceOnUse">
      <stop stop-color="#313E4C"></stop>
      <stop offset="1" stop-color="#514F6D"></stop>
    </linearGradient>
    <linearGradient id="paint66_linear" x1="135.927" y1="355.873" x2="135.645" y2="338.667" gradientUnits="userSpaceOnUse">
      <stop stop-color="#313E4C"></stop>
      <stop offset="1" stop-color="#514F6D"></stop>
    </linearGradient>
    <linearGradient id="paint67_linear" x1="196.239" y1="354.443" x2="189.187" y2="334.134" gradientUnits="userSpaceOnUse">
      <stop stop-color="#313E4C"></stop>
      <stop offset="1" stop-color="#514F6D"></stop>
    </linearGradient>
    <linearGradient id="paint68_linear" x1="80.092" y1="572.767" x2="88.294" y2="511.447" gradientUnits="userSpaceOnUse">
      <stop offset=".002" stop-color="#0D4F6D" stop-opacity="0"></stop>
      <stop offset=".51" stop-color="#0D4F6D" stop-opacity=".05"></stop>
      <stop offset="1" stop-color="#0D4F6D" stop-opacity=".3"></stop>
    </linearGradient>
    <linearGradient id="paint69_linear" x1="516.745" y1="305.617" x2="518.063" y2="318.614" gradientUnits="userSpaceOnUse">
      <stop stop-color="#fff"></stop>
      <stop offset="1" stop-color="#A4B7BC"></stop>
    </linearGradient>
    <linearGradient id="paint70_linear" x1="528.608" y1="295.521" x2="534.57" y2="299.478" gradientUnits="userSpaceOnUse">
      <stop stop-color="#fff"></stop>
      <stop offset="1" stop-color="#A4B7BC"></stop>
    </linearGradient>
    <linearGradient id="paint71_linear" x1="158.79" y1="321.572" x2="159.696" y2="316.028" gradientUnits="userSpaceOnUse">
      <stop stop-color="#313E4C"></stop>
      <stop offset="1" stop-color="#514F6D"></stop>
    </linearGradient>
    <radialGradient id="paint0_radial" cx="0" cy="0" r="1" gradientUnits="userSpaceOnUse" gradientTransform="rotate(10.976 -2347.212 2049.95) scale(168.828 30.0612)">
      <stop stop-color="#0D4F6D"></stop>
      <stop offset="1" stop-color="#2C6BD7" stop-opacity="0"></stop>
    </radialGradient>
    <radialGradient id="paint1_radial" cx="0" cy="0" r="1" gradientUnits="userSpaceOnUse" gradientTransform="translate(360.785 273.812) scale(154.225)">
      <stop stop-color="#0FF" stop-opacity=".4"></stop>
      <stop offset="1" stop-color="#0FF" stop-opacity="0"></stop>
    </radialGradient>
    <radialGradient id="paint2_radial" cx="0" cy="0" r="1" gradientUnits="userSpaceOnUse" gradientTransform="translate(364.961 258.492) scale(229.527)">
      <stop stop-color="#0FF" stop-opacity=".4"></stop>
      <stop offset="1" stop-color="#0FF" stop-opacity="0"></stop>
    </radialGradient>
    <radialGradient id="paint9_radial" cx="0" cy="0" r="1" gradientUnits="userSpaceOnUse" gradientTransform="matrix(5.135 .95408 -.92222 4.9635 553.649 165.519)">
      <stop stop-color="#1DEFCB"></stop>
      <stop offset=".998" stop-color="#1DEFCB" stop-opacity="0"></stop>
    </radialGradient>
    <radialGradient id="paint10_radial" cx="0" cy="0" r="1" gradientUnits="userSpaceOnUse" gradientTransform="matrix(5.135 .95408 -.92222 4.9635 541.117 162.986)">
      <stop stop-color="#1DEFCB"></stop>
      <stop offset=".998" stop-color="#1DEFCB" stop-opacity="0"></stop>
    </radialGradient>
    <radialGradient id="paint11_radial" cx="0" cy="0" r="1" gradientUnits="userSpaceOnUse" gradientTransform="matrix(5.135 .95408 -.92222 4.9635 528.585 160.172)">
      <stop stop-color="#1DEFCB"></stop>
      <stop offset=".998" stop-color="#1DEFCB" stop-opacity="0"></stop>
    </radialGradient>
    <radialGradient id="paint12_radial" cx="0" cy="0" r="1" gradientUnits="userSpaceOnUse" gradientTransform="matrix(5.13499 .95408 -.92221 4.9635 516.474 157.217)">
      <stop stop-color="#1DEFCB"></stop>
      <stop offset=".998" stop-color="#1DEFCB" stop-opacity="0"></stop>
    </radialGradient>
    <radialGradient id="paint13_radial" cx="0" cy="0" r="1" gradientUnits="userSpaceOnUse" gradientTransform="matrix(5.135 .95408 -.92222 4.9635 503.52 154.121)">
      <stop stop-color="#1DEFCB"></stop>
      <stop offset=".998" stop-color="#1DEFCB" stop-opacity="0"></stop>
    </radialGradient>
    <radialGradient id="paint14_radial" cx="0" cy="0" r="1" gradientUnits="userSpaceOnUse" gradientTransform="matrix(5.13499 .95409 -.92222 4.9635 491.269 151.589)">
      <stop stop-color="#1DEFCB"></stop>
      <stop offset=".998" stop-color="#1DEFCB" stop-opacity="0"></stop>
    </radialGradient>
    <radialGradient id="paint15_radial" cx="0" cy="0" r="1" gradientUnits="userSpaceOnUse" gradientTransform="matrix(5.13499 .95409 -.92222 4.9635 478.738 148.634)">
      <stop stop-color="#1DEFCB"></stop>
      <stop offset=".998" stop-color="#1DEFCB" stop-opacity="0"></stop>
    </radialGradient>
    <radialGradient id="paint16_radial" cx="0" cy="0" r="1" gradientUnits="userSpaceOnUse" gradientTransform="matrix(5.13499 .95409 -.92222 4.9635 465.783 145.539)">
      <stop stop-color="#1DEFCB"></stop>
      <stop offset=".998" stop-color="#1DEFCB" stop-opacity="0"></stop>
    </radialGradient>
    <radialGradient id="paint17_radial" cx="0" cy="0" r="1" gradientUnits="userSpaceOnUse" gradientTransform="matrix(5.135 .95408 -.92222 4.9635 453.533 142.443)">
      <stop stop-color="#1DEFCB"></stop>
      <stop offset=".998" stop-color="#1DEFCB" stop-opacity="0"></stop>
    </radialGradient>
    <radialGradient id="paint19_radial" cx="0" cy="0" r="1" gradientUnits="userSpaceOnUse" gradientTransform="matrix(5.135 .95408 -.92222 4.9635 553.649 189.897)">
      <stop stop-color="#1DEFCB"></stop>
      <stop offset=".998" stop-color="#1DEFCB" stop-opacity="0"></stop>
    </radialGradient>
    <radialGradient id="paint20_radial" cx="0" cy="0" r="1" gradientUnits="userSpaceOnUse" gradientTransform="matrix(5.135 .95408 -.92222 4.9635 541.117 187.364)">
      <stop stop-color="#1DEFCB"></stop>
      <stop offset=".998" stop-color="#1DEFCB" stop-opacity="0"></stop>
    </radialGradient>
    <radialGradient id="paint21_radial" cx="0" cy="0" r="1" gradientUnits="userSpaceOnUse" gradientTransform="matrix(5.135 .95408 -.92222 4.9635 528.585 184.55)">
      <stop stop-color="#1DEFCB"></stop>
      <stop offset=".998" stop-color="#1DEFCB" stop-opacity="0"></stop>
    </radialGradient>
    <radialGradient id="paint22_radial" cx="0" cy="0" r="1" gradientUnits="userSpaceOnUse" gradientTransform="matrix(5.13499 .95409 -.92222 4.9635 516.474 181.595)">
      <stop stop-color="#1DEFCB"></stop>
      <stop offset=".998" stop-color="#1DEFCB" stop-opacity="0"></stop>
    </radialGradient>
    <radialGradient id="paint23_radial" cx="0" cy="0" r="1" gradientUnits="userSpaceOnUse" gradientTransform="matrix(5.135 .95408 -.92222 4.9635 503.52 178.499)">
      <stop stop-color="#1DEFCB"></stop>
      <stop offset=".998" stop-color="#1DEFCB" stop-opacity="0"></stop>
    </radialGradient>
    <radialGradient id="paint24_radial" cx="0" cy="0" r="1" gradientUnits="userSpaceOnUse" gradientTransform="matrix(5.13499 .95409 -.92222 4.9635 491.269 175.967)">
      <stop stop-color="#1DEFCB"></stop>
      <stop offset=".998" stop-color="#1DEFCB" stop-opacity="0"></stop>
    </radialGradient>
    <radialGradient id="paint25_radial" cx="0" cy="0" r="1" gradientUnits="userSpaceOnUse" gradientTransform="matrix(5.13499 .95409 -.92222 4.9635 478.738 173.012)">
      <stop stop-color="#1DEFCB"></stop>
      <stop offset=".998" stop-color="#1DEFCB" stop-opacity="0"></stop>
    </radialGradient>
    <radialGradient id="paint26_radial" cx="0" cy="0" r="1" gradientUnits="userSpaceOnUse" gradientTransform="matrix(5.13499 .95409 -.92222 4.9635 465.782 169.917)">
      <stop stop-color="#1DEFCB"></stop>
      <stop offset=".998" stop-color="#1DEFCB" stop-opacity="0"></stop>
    </radialGradient>
    <radialGradient id="paint27_radial" cx="0" cy="0" r="1" gradientUnits="userSpaceOnUse" gradientTransform="matrix(5.135 .95408 -.92222 4.9635 453.533 166.821)">
      <stop stop-color="#1DEFCB"></stop>
      <stop offset=".998" stop-color="#1DEFCB" stop-opacity="0"></stop>
    </radialGradient>
    <clipPath id="clip0">
      <path fill="#fff" transform="translate(0 .5)" d="M0 0h671.7v616.5H0z"></path>
    </clipPath>
  </defs>
</svg>
